<mxfile host="app.diagrams.net" modified="2023-12-19T12:42:49.155Z" agent="Mozilla/5.0 (Windows NT 10.0; Win64; x64; rv:120.0) Gecko/20100101 Firefox/120.0" etag="_CMvD_DDc0Xc5K-_0eMW" version="22.1.11" type="github">
  <diagram name="第 1 页" id="clXA8sO3VV8zxSH6Kri5">
    <mxGraphModel dx="2668" dy="932" grid="1" gridSize="10" guides="1" tooltips="1" connect="1" arrows="1" fold="1" page="1" pageScale="1" pageWidth="827" pageHeight="1169" math="0" shadow="0">
      <root>
        <mxCell id="0" />
        <mxCell id="1" parent="0" />
        <mxCell id="Jp0leE43ZLa_niD7ZrZm-3" value="" style="edgeStyle=orthogonalEdgeStyle;rounded=0;orthogonalLoop=1;jettySize=auto;html=1;" edge="1" parent="1" target="Jp0leE43ZLa_niD7ZrZm-2">
          <mxGeometry relative="1" as="geometry">
            <mxPoint x="280" y="160" as="sourcePoint" />
          </mxGeometry>
        </mxCell>
        <mxCell id="Jp0leE43ZLa_niD7ZrZm-6" style="edgeStyle=orthogonalEdgeStyle;rounded=0;orthogonalLoop=1;jettySize=auto;html=1;exitX=0;exitY=0.5;exitDx=0;exitDy=0;entryX=0.5;entryY=0;entryDx=0;entryDy=0;" edge="1" parent="1" target="Jp0leE43ZLa_niD7ZrZm-5">
          <mxGeometry relative="1" as="geometry">
            <mxPoint x="280" y="160" as="sourcePoint" />
          </mxGeometry>
        </mxCell>
        <mxCell id="Jp0leE43ZLa_niD7ZrZm-7" style="edgeStyle=orthogonalEdgeStyle;rounded=0;orthogonalLoop=1;jettySize=auto;html=1;exitX=0.5;exitY=1;exitDx=0;exitDy=0;entryX=0.5;entryY=0;entryDx=0;entryDy=0;" edge="1" parent="1" target="Jp0leE43ZLa_niD7ZrZm-4">
          <mxGeometry relative="1" as="geometry">
            <mxPoint x="340" y="190" as="sourcePoint" />
          </mxGeometry>
        </mxCell>
        <mxCell id="Jp0leE43ZLa_niD7ZrZm-9" style="edgeStyle=orthogonalEdgeStyle;rounded=0;orthogonalLoop=1;jettySize=auto;html=1;exitX=1;exitY=0.5;exitDx=0;exitDy=0;entryX=0.5;entryY=0;entryDx=0;entryDy=0;" edge="1" parent="1" target="Jp0leE43ZLa_niD7ZrZm-8">
          <mxGeometry relative="1" as="geometry">
            <mxPoint x="400" y="160" as="sourcePoint" />
          </mxGeometry>
        </mxCell>
        <mxCell id="Jp0leE43ZLa_niD7ZrZm-11" style="edgeStyle=orthogonalEdgeStyle;rounded=0;orthogonalLoop=1;jettySize=auto;html=1;exitX=1;exitY=0.5;exitDx=0;exitDy=0;entryX=0.5;entryY=0;entryDx=0;entryDy=0;" edge="1" parent="1" target="Jp0leE43ZLa_niD7ZrZm-10">
          <mxGeometry relative="1" as="geometry">
            <mxPoint x="400" y="160" as="sourcePoint" />
          </mxGeometry>
        </mxCell>
        <mxCell id="Jp0leE43ZLa_niD7ZrZm-20" style="edgeStyle=orthogonalEdgeStyle;rounded=0;orthogonalLoop=1;jettySize=auto;html=1;exitX=0.5;exitY=1;exitDx=0;exitDy=0;entryX=0.5;entryY=0;entryDx=0;entryDy=0;" edge="1" parent="1" source="Jp0leE43ZLa_niD7ZrZm-2" target="Jp0leE43ZLa_niD7ZrZm-19">
          <mxGeometry relative="1" as="geometry" />
        </mxCell>
        <mxCell id="Jp0leE43ZLa_niD7ZrZm-2" value="长度1" style="rounded=0;whiteSpace=wrap;html=1;" vertex="1" parent="1">
          <mxGeometry x="110" y="280" width="120" height="60" as="geometry" />
        </mxCell>
        <mxCell id="Jp0leE43ZLa_niD7ZrZm-27" style="edgeStyle=orthogonalEdgeStyle;rounded=0;orthogonalLoop=1;jettySize=auto;html=1;exitX=0.5;exitY=1;exitDx=0;exitDy=0;entryX=0.5;entryY=0;entryDx=0;entryDy=0;" edge="1" parent="1" source="Jp0leE43ZLa_niD7ZrZm-4" target="Jp0leE43ZLa_niD7ZrZm-26">
          <mxGeometry relative="1" as="geometry" />
        </mxCell>
        <mxCell id="Jp0leE43ZLa_niD7ZrZm-4" value="长度2" style="rounded=0;whiteSpace=wrap;html=1;" vertex="1" parent="1">
          <mxGeometry x="280" y="280" width="120" height="60" as="geometry" />
        </mxCell>
        <mxCell id="Jp0leE43ZLa_niD7ZrZm-17" style="edgeStyle=orthogonalEdgeStyle;rounded=0;orthogonalLoop=1;jettySize=auto;html=1;exitX=0.5;exitY=1;exitDx=0;exitDy=0;entryX=0.5;entryY=0;entryDx=0;entryDy=0;" edge="1" parent="1" source="Jp0leE43ZLa_niD7ZrZm-5" target="Jp0leE43ZLa_niD7ZrZm-15">
          <mxGeometry relative="1" as="geometry" />
        </mxCell>
        <mxCell id="Jp0leE43ZLa_niD7ZrZm-5" value="长度0" style="rounded=0;whiteSpace=wrap;html=1;" vertex="1" parent="1">
          <mxGeometry x="-70" y="280" width="120" height="60" as="geometry" />
        </mxCell>
        <mxCell id="Jp0leE43ZLa_niD7ZrZm-38" style="edgeStyle=orthogonalEdgeStyle;rounded=0;orthogonalLoop=1;jettySize=auto;html=1;exitX=0.5;exitY=1;exitDx=0;exitDy=0;entryX=0.5;entryY=0;entryDx=0;entryDy=0;" edge="1" parent="1" source="Jp0leE43ZLa_niD7ZrZm-8" target="Jp0leE43ZLa_niD7ZrZm-37">
          <mxGeometry relative="1" as="geometry" />
        </mxCell>
        <mxCell id="Jp0leE43ZLa_niD7ZrZm-8" value="长度3" style="rounded=0;whiteSpace=wrap;html=1;" vertex="1" parent="1">
          <mxGeometry x="460" y="280" width="120" height="60" as="geometry" />
        </mxCell>
        <mxCell id="Jp0leE43ZLa_niD7ZrZm-44" style="edgeStyle=orthogonalEdgeStyle;rounded=0;orthogonalLoop=1;jettySize=auto;html=1;exitX=0.5;exitY=1;exitDx=0;exitDy=0;entryX=0.5;entryY=0;entryDx=0;entryDy=0;" edge="1" parent="1" source="Jp0leE43ZLa_niD7ZrZm-10" target="Jp0leE43ZLa_niD7ZrZm-43">
          <mxGeometry relative="1" as="geometry" />
        </mxCell>
        <mxCell id="Jp0leE43ZLa_niD7ZrZm-10" value="其他" style="rounded=0;whiteSpace=wrap;html=1;" vertex="1" parent="1">
          <mxGeometry x="670" y="280" width="120" height="60" as="geometry" />
        </mxCell>
        <mxCell id="Jp0leE43ZLa_niD7ZrZm-13" style="edgeStyle=orthogonalEdgeStyle;rounded=0;orthogonalLoop=1;jettySize=auto;html=1;exitX=0;exitY=0.5;exitDx=0;exitDy=0;" edge="1" parent="1" source="Jp0leE43ZLa_niD7ZrZm-12">
          <mxGeometry relative="1" as="geometry">
            <mxPoint x="270" y="160" as="targetPoint" />
          </mxGeometry>
        </mxCell>
        <mxCell id="Jp0leE43ZLa_niD7ZrZm-14" style="edgeStyle=orthogonalEdgeStyle;rounded=0;orthogonalLoop=1;jettySize=auto;html=1;exitX=1;exitY=0.5;exitDx=0;exitDy=0;" edge="1" parent="1" source="Jp0leE43ZLa_niD7ZrZm-12">
          <mxGeometry relative="1" as="geometry">
            <mxPoint x="410" y="160" as="targetPoint" />
          </mxGeometry>
        </mxCell>
        <mxCell id="Jp0leE43ZLa_niD7ZrZm-12" value="nums.size()" style="rhombus;whiteSpace=wrap;html=1;" vertex="1" parent="1">
          <mxGeometry x="260" y="130" width="160" height="60" as="geometry" />
        </mxCell>
        <mxCell id="Jp0leE43ZLa_niD7ZrZm-15" value="return" style="rounded=1;whiteSpace=wrap;html=1;" vertex="1" parent="1">
          <mxGeometry x="-70" y="390" width="120" height="60" as="geometry" />
        </mxCell>
        <mxCell id="Jp0leE43ZLa_niD7ZrZm-18" value="return maxVal" style="rounded=1;whiteSpace=wrap;html=1;" vertex="1" parent="1">
          <mxGeometry x="110" y="580" width="120" height="60" as="geometry" />
        </mxCell>
        <mxCell id="Jp0leE43ZLa_niD7ZrZm-25" style="edgeStyle=orthogonalEdgeStyle;rounded=0;orthogonalLoop=1;jettySize=auto;html=1;exitX=0.5;exitY=1;exitDx=0;exitDy=0;" edge="1" parent="1" source="Jp0leE43ZLa_niD7ZrZm-19" target="Jp0leE43ZLa_niD7ZrZm-18">
          <mxGeometry relative="1" as="geometry" />
        </mxCell>
        <mxCell id="Jp0leE43ZLa_niD7ZrZm-19" value="最大值" style="rounded=0;whiteSpace=wrap;html=1;" vertex="1" parent="1">
          <mxGeometry x="110" y="390" width="120" height="60" as="geometry" />
        </mxCell>
        <mxCell id="Jp0leE43ZLa_niD7ZrZm-24" style="edgeStyle=orthogonalEdgeStyle;rounded=0;orthogonalLoop=1;jettySize=auto;html=1;exitX=0.5;exitY=1;exitDx=0;exitDy=0;entryX=0.5;entryY=1;entryDx=0;entryDy=0;" edge="1" parent="1" source="Jp0leE43ZLa_niD7ZrZm-22" target="Jp0leE43ZLa_niD7ZrZm-19">
          <mxGeometry relative="1" as="geometry" />
        </mxCell>
        <mxCell id="Jp0leE43ZLa_niD7ZrZm-30" style="edgeStyle=orthogonalEdgeStyle;rounded=0;orthogonalLoop=1;jettySize=auto;html=1;exitX=0.5;exitY=1;exitDx=0;exitDy=0;entryX=0.5;entryY=1;entryDx=0;entryDy=0;" edge="1" parent="1" source="Jp0leE43ZLa_niD7ZrZm-22" target="Jp0leE43ZLa_niD7ZrZm-26">
          <mxGeometry relative="1" as="geometry" />
        </mxCell>
        <mxCell id="Jp0leE43ZLa_niD7ZrZm-22" value="" style="shape=image;verticalLabelPosition=bottom;labelBackgroundColor=default;verticalAlign=top;aspect=fixed;imageAspect=0;image=data:image/png,iVBORw0KGgoAAAANSUhEUgAAAgAAAAG2CAYAAAAJAz4PAAAgAElEQVR4Xu2df4xdZ3nnn/kHnFYYcCGZwdhdw0IIa6hVO4jJKlB+yCuBqnosVEfFyINYmaoEJJSxFLSLNFVWItJchAQGlWgrxsKsSFV5XCGoNuLHFtQMIp6VIS5pYIu1NsaTwAZi1Cbwj/f8vPe9731/nXPPOfecez9Tocb3vD+e9/O89zzf93nfc+7czehvbm5O+IMABCAAAQhAYHYIzCEAZsfZjBQCEIAABCCQE0AAMBcgAAEIQAACM0igcwJgdXXV6SbX9fia6brtc998UNvy2eVrS71exs6yY9DtKtKOqayvfgin0DIh5eLxlbGziL8oCwEIQKCLBDonAGyQQ4KmWsb2365ArAccWwAKDUx5X7kteb2idpqCXFnbfAHcJ1R89ce9rjML+dIhAEIoUQYCEJg1ArUJgMMnV+WunU/I+d7DctFE9cAxWTlyh9x4dFUeeiQcu+9m7rquBlp99e4KmKbA7LLYF+RsQVS3T2+niMjxccpFQyh5k/gxMfN9FiKOQssUKRdaNpQH5SAAAQh0nUA9AiAJ7nvk6vmePGyM/iKJQJBHZTUw+oesik1lXDd+NbDrQdm00gwN7KHl1JX7OHbaxu0L2iEiITS7oIoXXxbFN9bQYD1OuSI+6vqXHPshAAEImAjUIgC8wT1AIOjG2lbDoat6fcVfJsD7ApetTRN4W1ahqJ2mIG8K2rZA7hMJIfVsQipUPJh8rbIs+tXV7XHZN04/Re2iPAQgAIE2EahBAByWk6t3iThS+weOrciRPVft2wMGQrYVW8jnukgIySbYgrZJBNjESUggdq3ei9qpl3cJjxDbTIImRBC4MgBVTX7fCt4kDEPmSlX20Q4EIACBthOoXAD4g7tfIIQEX1dQV4OUK4iayplWi/pq3damKWCago4r6OsB1ta3b+Xu67cuAWATQ67sie1LYqtjCu6uNsgAtP02hH0QgMAkCFQsAPzB3S8QzBhCVsOuwOxaMboCiq9fX6Ater2Mnb4+QlfyoaLAlgXxCSBXpqTI5B9HANhsLyNQithMWQhAAAJtI1CtADh8UtLs/0NiPth/QI6tHJE9V89Lz3Y60ELIdtN3rTh9wVQPWL5AGhrAymQIXKtdl52ugBaSJQidkGpbPg4u0aT3Z/ORKyCPIwCKZhtC+VAOAhCAQNcIVCgAAoK7VyDY8bkCRciqLiQ7UEQAFMkamEaV2+wKpj5x45psRQSF2o6PgSlL4BNavrH6BIXLPlffuq1F51DXvszYCwEIQKAIgeoEgDe4BwgEh+WmIKGujF0rSzUAmQKY7TP18xABoa/UQxyht5v3WdTOkJW1L1i6OJQNwqbx6W3ZONuEkysbETIPXIIsxGeUgQAEIDANBCoTAHU8+ucKOj74tpWsGmBD2g9ZnYaUsdlblZ0m4aBnAdogAHQx5hM8ZXxkq0MGwPet4ToEIDBLBKoRAMnqf6c8YX3xT7r6v+NG+It/TCu5oo7RV4r6SjNvz5bOd6X5XbbY0u8uEaDaUsRO0xjV+iEBtEyZUP+oDE396NsDZYN0SL2QMkXnGOUhAAEIdJVANQKghaPXA49tNWxbvbu2HHyBPGSlbRIf6mo4VJyYbPEJENf1ENtDMh6mlb5JNJgEgi4KTFxc4zZtEfiYhPbRwqmOSRCAAARKEZhaAVCKBpUgAAEIQAACM0IAATAjjmaYEIAABCAAAZUAAoD5AAEIQAACEJhBAgiAGXQ6Q4YABCAAAQggAJgDEIAABCAAgRkkgACYQaczZAhAAAIQgAACgDkAAQhAAAIQmEECCIAZdDpDhgAEIAABCCAAmAMQgAAEIACBGSSAAJhBpzNkCEAAAhCAAAKAOQABCEAAAhCYQQIIgBl0OkOGAAQgAAEIVC4A7n3Vx+Q++Zrs+8n3J0j3d+VLr/1D+eMXZCb8+knZ+X+fHrLnv/3+3fIRGf28jNFDbb3kP8iNV+6Sp37xv+U12/+aNPdn83fKX71sx9BnZfqx1Vm7cFNWDm7LxvKCHD1TZcsta2vXPXJ5r8gnL35ZTrfMtMrMWbsgN1cOKs1tSW/ukJzqf7ImF26uyKBEjX6/5Z2yeftr5btPfk4++lxlI6y+oRPn5Pr6omzWNf8zn2z15uTQwBHFxzHkW92vxZujBgTGJVC5ABjPoD+Qvz3wLpErn5D3PFO+pSqDe4gVJgEgv/2p/PmPLsv/iBpIrr9I6hEAyU1FtCARYnWDZVoRuOflU69/v7z5V1+QxZ9tNzj4gl0V8Wfdga+g6SPFW+H3cQeR1R+bdSrcoi/qeCKiouHQDARiAlMoANLV/56nvyNv+VUzTh4RALf+jjz1gn+Thy/9k/xXie15vbxJdojcGGQFqrEsvans3liWhTYv/VsRCBAA1cy5Aq20wu8F7PUUTTJt0pO5UmmA+Lt6XK7UlaWobpi0NEMEqhEAyRd93wDbjdEtgHhr4L3Pf02++5J3yZEsNb+Vr/STVOOdMm8Cb2jL6J8d++TH//6VcpvpYr4FkKXn+0UsWwPHfvOkfG/n7f0thIs/HRYTeUo/aSda6X/lN6+UP863E+I+bhW5KL8jV688Ju+VyK4obf29qMybfpMLAG2LQp6RTydiIf1L2xf5yv+J6j8ff5KXHy4nyWpxtz31r3P97WPygR9+Xb7ZB5AGxdwfIpeH0utOn+Vt6L6PP8989vZX/IX89a0vNrqr73vvly3NCg1S3sM2xtXddur1lQ5HeLiNOXHuuqwvDWbpUEpYT+8uX5Hj60vpnN6KgsZnXh2lqbN/S5y2Pyt717NU/vaGLC8clWT3ZuIZAH1OPCvn9S2AZF69TL50ReS+/HuvsKzG7wkMbbsjgZllu07IuevrMnDH6FaI7q++d1Xe0YfD5RxbKkV8MzKVEADerzoFGidQjQBQzLadAUg+36ncTIyrgyq2AG6Vb++/XUQL2jpZ2zZBmq5/fhB8E9Eg/QA9EpxzUaGKjFv/LREFScB//t/JjRf/XD4tt8uxRAD8bmLfgb74yIJ7JDqGziko/f4wFgQ7f9HfUsjHkt64rpnT/1nwv6ZspyQ35pf8KBMB2Y0+EmX5eY3UR4MA6/WZaY941x/Ivc89JT98bnsgNKpaCVra8dqZABsvA5Cesxjs21rZ50JACzL9+ZekkmMhYNkDLhJkxk5Le+43tjMAubDsi3ML27H8ngb4xU01u7Uma2uX5NKlM3JGPesSyiFjf01Jw4/40cXfUD/4jp3U3Stnh85zBNemIARqIdCsABg6HBgH+/8oV4dWFy0RAEOHA2NB8ftyNVmNp8H6TVoqf3QL4N/kz5/+HfmrKPD/+W9+X/5SfigPv/APMwGQHgxU/xJRYQjw+dkB0TIEQwJgcXOwegwQYv0ixpv7MP9RMaf5LLnB7xpdIeoDHCsQKI25BIB3bo0nAEacZgs6vgDuC1a++qohvrbGvWU4BcDw4cBEXO74x+HDv2P5vcD2VggHY/A27cunwmPvWcNefUkBkIoMmf5DuuPON+o3TqBRAfDe59UDWO0VAOlKPQ/UqgAwZxeMAiBKj/7l3t+R69lWwOXb7h4WAPp2hHJosD8L8m0Nw1ZFXMaeAQgIdsab83C9NLXu9tlIuteUVh8rEIQJAJ+d42YAUisCTuD7ArgvWPnqt0YARFsAytMY1QuAZIIr2ybxwC3peR/TzG8jB/BG2h/A3TadqykpAJJWyQA0Htzo0E8AAWB4PNAuAApkAH70tLw7eRQx3beXaGvBvAWQ7fmPZABysfGkyCstWxqOMwDGrZh4RRcd1fgv8TmAwAyAO7BG6f5d35fTyhMbSb87tLMGUyAA9C2A9IZuePTMF8B9wcpXf4YEwNrampw6pTx3Z5vvTqau0/cF9+WL+Gbk3luwL/+9mxIQGJtAywRAwMrVO+TxzwDYBYDhgJ7lDED8CODr4/MEL0wfB4z/O2n3V7dGhxVfJt/TD/jJ4LHBeIijjxYOziEMEDjSpCNnAHS2YWcA7AJgcFhMPdA3fM4gs7Sq58kdWwD+DEB6WLDcOypG96OtaV1fkGhIAPQPtsUHEEudWo9859wCCMgAjOF3o/02dlam/m2ERNjtVg5hZqv8KF8/8mQNTwF4b74U6BiBagSA6SR4BiIPDiHp5KSKfnJ97KcA9AN9u4wuyk/6x4HXJQDiyv6nAKIzAFHQl2hvP97/j7cT1HaH6ktk309/IW96ZfQEQ5Lq/9fsJUbDJ/5HDifmo3AFHI3l9tP6M/AhTwF4tm1031tO1utbBeWfAlDcl82N4Lkl2hMBRZ4C0NLF2xs92VxciU6hZ4f5Rl7gk38BsgBsSzfrhwV9AiIwA1BeAOhzQukw55U/BeDbAoiqlvd73K9ry0V/CkCxM2MabeYPPbXRL1HmKQCfcPPe+HkPgBcRBRonUI0AaNxsOlQJzMybAGfB7RW+CTAWAQ/K/e1+R0QXfMqbALvgJWwsQQABUAIaVSDQdgLOR0Tbbjz2QQACjRBAADSCmU4gAAEIQAAC7SKAAGiXP7AGAhCAAAQg0AgBBEAjmOkEAhCAAAQg0C4CCIB2+QNrIAABCEAAAo0QQAA0gplOIAABCEAAAu0igABolz+wBgIQgAAEINAIAQRAI5jpBAIQgAAEINAuAgiAdvkDayAAAQhAAAKNEEAANIKZTiAAAQhAAALtIoAAaJc/sAYCEIAABCDQCAEEQCOY6QQCEIAABCDQLgIIgHb5A2sgAAEIQAACjRCYTgGw70F53cqd8mzvHXI9+lVe49/dX5Q33nMgu/S0/NxV1uaK7FfCtg2/HR7kvbF/YjSol4kXin+u976duRmX5ZPKz8gmn/JraxP3EQZAAAKzR2A6BYDPjyECwddG9lvl0puTQ6e8hWe2QBL8dzwmH/jh1+WbEYX09+GfGRUBY4shfm99ZicZA4cABEoRmE0BEK/+D1+TH3/8fnmuFLZ40XpTVnZvyPLCUTlTso32VYuD6HG5srwgR6sY1C3vlM3bXyvfffJz8tE+6Hn51OvfL2/+1Rdk8WfbQwgSptKTuVKKqmLb2+ccLIIABCBQKYEpEgBvlYUHTsvLd+V8RtP6L/3I47LndhO/olsA6WpztzX1n14/ONTVVpQsOCSn5IScu74uS/P5xW3Z0AJu+lvu/QKDVraHBcdwudF2gmdKsvpeknlR2sjS8sY2tgKD9K575PJeGVntJ1mAl/yonxXo95H0KRmnYOuzggiAosQoDwEIzDaBKRIAiiM9Kf5bjn1DXrP/sfIZgCxgXjOm/9MAv7i5LAv9ZfSarK1dkkuXzsgZdWUdmvY29JcG/2uDYFkmePaDfC5Oqv0yWAO9RRiIk6vHtqTuXjmbiCz+IAABCEDARwAB4CNkuu4M3L7sgNJgiAAwBkXTfncqPPaeDT2TELfxNvlWjQGzKQGQiiEZyaSUcS11IAABCMwKAQRAGU/7Vqr9lLo9zZ9c8QoAy8G2kfYHgyj0RIIrAzCJLQAfV5evyACUmcnUgQAEZpgAAqCU892r/LW1NTl1SklEJ8F09+gKNSCTYH7KoOL9btMZgFJctEoFDwGmjwNyBqAK9LQBAQhAwEcAAeAjZLluewqgfzBPPShnC/RWAeDfRhjpPwvikcpQzh4UHVzFwiLqXt8GsD4GGJXlKYCi/qI8BCAAgfIEpkgA6E8BKFCe+Wpy4G+H7SmAJ0/LDz79+YIUXc+d608BqCf09acAlG6zU/7RZn6zTwEUHHnR4mnQf3FWzfAioPiKdzvE1yvvAfAR4joEIAABlcAUCYAJOHbcNwFOwORWdsmbAFvpFoyCAASmmwACYLr9y+ggAAEIQAACRgIIACYGBCAAAQhAYAYJIABm0OkMGQIQgAAEIIAAYA5AAAIQgAAEZpAAAmAGnc6QIQABCEAAAggA5gAEIAABCEBgBgkgAGbQ6QwZAhCAAAQggABgDkAAAhCAAARmkAACYAadzpAhAAEIQAACCADmAAQgAAEIQGAGCSAAZtDpDBkCEIAABCCAAOjwHFhdXZX4f/qf7fMqh1q0jzK2Fu1DHZ+prq+9MjZWyZS2IAABCDRJAAHQJO2K+6oiYJkERG6m61pcpkhAVcva/tsnZGz2hIqgovba3KX2p4/F5WIfz4qnB81BAAIQcBJAADQxQQ6flNW7dsoT53vy8EVDhweOycqRO+TGo6vy0CPhBhUVAHoAyuvnn7uCdLhVaUm9TbUvWwC1reBtdW0ixMXFJDJUwRMqJky2ugSGT3wU5Ut5CEAAAuMSQACMS9Bb/4AcWzkie66el54x+oscPrkqd8mjslok+itBVg1gtqDoC656PdcqXQ9mtn+HZBdMosRmiymImvo2BfkidX3B2iWkXFkKMgDeLwsFIACBBgkgAOqGnaz+RR5dfUiMi/tk9b9HrtqyAxb7XEHYtWI2BVcbAl9mIERUqNkA03/b+tDbDl3t2wSBa2Wv8/IJHBcvBEDdXyjahwAEqiKAAKiKpKUd3+r+wLEVObLnqpzvPSym3YHQYONK39tWrEVW/UUzC2pWwhRgXX27hIWJh2tLISQtb7PPNTWKbhX4sgo1T0OahwAEIDBCAAFQ56Twru4Py8k0PVBo798UjENS9q7UdWhALoLLJUrU/tQAbAv+42QATFkGW//jpOl9dX3Xi7ClLAQgAIFxCSAAxiXoqF/36j901e/bLnBlGfSA7MNVdmUcknY3raJtKX+b3SFCKRcHRbjYshCs/H0zhusQgMCkCCAAaiPvW937Dwf6TNNT13l5X9CxXffV0+3xlXfth+u26oHZ1pdrO8OXGfFlOVziwMXWJ7BY+ftmMtchAIFJEEAA1ETdu7fvOxwYYFfbBYApaNqCpU9MuFblttW3SRDomQHXyj0kA+DLSoSMK8DVFIEABCBQOQEEQOVI4wbrX/0XWZGaVtO+4OgKuKGZBrUN2z58iB1FxhqylWBrr0wGwNcfAqCWLxiNQgACFRBAAFQAcaQJ3+reezgwzCg1A6AHW9tevG8lXSRdXSS4qQLAJEh82wX6WEOCuE9c+FL3vgyAb/Wv91+EV9gMoBQEIACB8gQQAOXZWWqmq/+dT9he/JPu/d9xo/iLf9QObcHHF7Rcwy0aoELL66t/U9rddgbAld43BXiX8PEJj6IZAN/qHwFQ+ZeLBiEAgQoJIAAqhNlUU6GB12dPyGq/bF+2gK4GxZAAqq70feLFJgj0cdqyES4BoAsRn5jQxVroOHw+4zoEIACBqgggAKoiSTsQgAAEIACBDhFAAHTIWZgKAQhAAAIQqIoAAqAqkrQDAQhAAAIQ6BABBECHnIWpEIAABCAAgaoIIACqIkk7EIAABCAAgQ4RQAB0yFmYCgEIQAACEKiKAAKgKpK0AwEIQAACEOgQAQRAh5yFqRCAAAQgAIGqCCAAqiJJOxCAAAQgAIEOEUAAdMhZmAoBCEAAAhCoigACoCqStAMBCEAAAhDoEAEEQIechakQgAAEIACBqgggAKoiWXM7J85dl/XFTVleOCpnau5rNps/IPI//ljkf/13ke+8UeTjbxI5+4DI1zIaH/+4yB0mMj8R+bMvTRGyjINpRE98ReSBi1M01pYM5V3vFTm+K2L7GZEnxrApnqO3fk/kwz8Q+cx/Fnkaf41BcyaqIgAm5ea1C3JzRaQ3d0hOBdiAAAiANFaRhfSm+XgkAB66LRIDdw/fkOObq8zCDTUTAKr4GYurq3KTfdU2iGoarmJ+nfywyBt+FAmA/xkJ2Gi+PhXP5evV2EcrU0kAATAptyIAxiC/JhduHpcrywty1JgOOSHnrq/L3rNzcihEXeWWxDfNrXjVHwcmBEA/+zGGp9xVEQB9PkkWIPrXONmkuI2D/5RmaRAAtc3aaWoYAVCLN+MAtSIHh9reSlb7l+JU/tK8sdetnhKwEoGQt7AlGxu7ZWlkCyANdHFzQ3WV1pPMQVpA5gzRcO3CTel3E9XT2+nXT9rclg0l6A7VjdpfvnK8P7aknUvn5Pr6kqSjjeuelb3rGZftjeLbGSfy9obtGAx3wN3Gw+nuvgCIswFvj1ZSSmrft0JLbuCvypqPtgUe+EW6jRD/xanzv42yCvm/5VfR9e9E/462HOK//xenbaNVW/x3x39SymV187T70DVHG3E78Wrwj16S9l0obe8LylmmJB7D70Xtx7Y//tq0r/448mxKdO2PMgaxTXlWQR+j6pTc3mTLRd9eydotktoe8kvUUbzFk6+KvTyzVPrvZQbGdW+LskTJVlDMP0/Za9smqj8TP0TF9fR+P12f+V3UDJRh1Z4E9MiXb4jmTG6PnqVRBUDc708j+/ItrD7j/Dti+w45vyFcnDICCIDKHZoG5cXNZVnoL0/XZG3tkly6dEbO5CtWVwYgC/79IJYHvpGgOZ4ASAL4bjUQpzeHSKkkK+c0+F8bbFNYbM6FwPaGOmYFbD9wpyKoyKI8aaUvhiz1vcKgAicbzwCoQSDrIw84ahBQu+8HHcPZgfxa/8aeBRY9iLvayPsaVwDoyPTgngThpyzbJlkw+z1ljMZ9bpfYMFxLxv2y8FWyHnxte+1envl4FBGT88nr9oWFcpYkERqmwG7IMMXtubIAyfxT5lvpjAECoIK7wdQ0gQCo3JXpF2y3LRjm/TkEQBJQZXjFXvkZgCRoLsqmNY0+LAZSs82pdZO9Q1i9fbmcENvxNvmWVTjENj0ocr9tO6AiB/syAHk3vhtzEjCiFbPpwJe6h+tqz9XG2MMNzAAkZyWizuJzE3+fb5tEq9NEvJiCni0Q5nUMhus8Qn1gZWAZm5enZ3Wu96fbqc8Jk5+TNhzsR8ZuERFj+58GZokAAqAOb/dXpHnjhnSbVQCYMgjZarzKpwB8ZxBGxjAApa/06xUAUb9tyQCEHAIcRwCYApwpOHkD1jiTukIBkAgDxRZjEHMIAHWc4hBOzuEqq/e8nJ469/IMEAB5xiXvYyhrozL18LWJg5E9fQTAOLOcuikBBEANM2FtbU1OnVIS3UkA2z20f54GNfNTAJPMAMR9v+1b8RaA76DdAFztAiDvypvqH/MMgGsuhK4+xxEAZABGPZBzfyo6lJmfcA/9zo7sv9eQARjZAoiMM82V3Ld/H21hOA/7WWxEAIR6nXIFCCAACsAKKWo8dGdKgbvS4pM6A6CJkpEzAlkAjpSMcr4hXqCPblkMsRprC8BE3SdOSj4FMGkBUOgMgGUbIR/DuGcArI8BqqvhqDPXFoD3DEDAylo9qFf00URjKj46qFllBmBE8FnObeTp/dg/6kFE05wzCYjKBABnAELu47NSBgFQi6f1pwDMJ26HT9hrJ/An8hTA6CG74KcAFI4jhxd1xmWeAKjFTwUa9b0ISD9tnjedp4JtJ9/1w4LBTwEotpsOHI4rAExokrGoB/88AuBxy1MAatuu8SblDAcKg92mnc6P7ZdoyyE/TJdsKyhPKeTt6gce81P3/X61w59DcyM6+Hg2Khg/EaIHev0gn20cpi0JBECw1ykYTgABEM6KkhCAQBCBgJV9UDuKAEgOHXb8pTah20jxsEceEwwGFlDQd7A2oAmKTAUBBMBUuJFBQKBNBCoUAN4Dem0at8sW3+HKpsYR+JRSU+bQz0QJIAAmip/OITCNBKoQAMrpfd+eedsR5lsEhV/K1PaBYV/XCSAAuu5B7IcABCAAAQiUIIAAKAGNKhCAAAQgAIGuE0AAdN2D2A8BCEAAAhAoQQABUAIaVSAAAQhAAAJdJ4AA6LoHsR8CEIAABCBQggACoAQ0qkAAAhCAAAS6TgAB0HUPYj8EIAABCECgBAEEQAloVIEABCAAAQh0nQACoOsexH4IQAACEIBACQIIgBLQqAIBncDq6mr/I/W/20AqtifUJlPZIvXV8YbUq6M/W7/q5+P0GzquEN+H+CWkv5C+TGXGaTuEc1m76qo3znjrsmmS7SIAJkmfvjtDQL9x6Ddu24085AavB82qoRS56RUJjDYGeRsh/Rbpz8elSIAP7bdsubJjj8dommsq65C2faxsQs01X03+zj8Lraf7yGVnSNu2+j57in4vi/DsUlkEQJe81Wlb5+VTr3+/7Nn+hLznmZoHcuCYrBy5Q248uioPPWLu6/DJVblr5xNyvvewXAw0xxdgxl1hVX1jV4OJr21T0A4RNa4AWaRPnwtCbtih/ZmCbNWf+Wyx9ZdzsM21kHZ9LH1B18Q6VAj5xhU6J0PG6SsTMmd0FmXqjMN70nURAJP2gLX/t8rCA6flxZfulX9++B9aa2WwYbe8UzZvv1OuXalfACTBXR6VVVv0TwTCHrl6vicPh0Z/bWXmu/mYbuQ+VqFt+tqx9e1q3yQAQsZgCww2MaR+brPH9Xno2F22q2NVy+m2jSMKQgOJWi60jsnOolzysZn8oa68Tf+tM/PNW31crrkWMudCREZomZD5WIZtV+ogAFrrqekQAPe+6mNy384B5K26BUBAcPcKhIA54bpZ6zd19SbqCoy+G2mAWf0i4wZX2xh0G0zlXEHDFDxMwahMkPPxMwV+tW9TYApd+erlfLbYAm8REVCkD9/c8Y1d7UsvW3bsLvtNbfrGYBNzofVmsRwCoGqv3/1FeeM90W9/J38X5Wrvmty28m55QfzPJ0/LDz79+eTKLce+Ia95y61Zuafl5713yPXL8T8/KPs+e6+8yGTXM1+VH3/8fnlODOJg34PyupU75dmknfT6y3eljfz22/fKU7edlj23x//K+0rL7HjktMg9eX+qHVWD+QP52wPvErEIgBPnrsv60rzIVk/mDp0q3fmBYytyZM9VR2r/sJxcvUvEsT0Q0nlogDXdOE03/zwQFQkANjt9N2RXULMFSb0vPciHBkp1nD42RZn4AqIriLnsCpkPef28rM8W2xxQ67v8G2pTSDmbH3yfh84VnU0II9ccLnLN1rdtPofwmqYyCIC6vJkLgX7QHnSUBv+fydUPvU9+GX+clJXBv5OirgyATwDkfTGMP7MAACAASURBVA2EwK+//Aa5/B11sPm1SKRkdiR27X8sExlVg2lCAPiDu18gjI5bDcquwOcLgqHXy4gA/WYdGmD0m3iRVZktaIbc4PXg7hqzib8+PlN7eptlBIDpWxAa3Iv40WWrz5fjflNNc9rFU50zRcZYNOjqftftNM2zEN+ElBmXaVfqIwDq8pQxqMedpSt8GQrI+WpcDdLVCQDzOQKbiNgtT+XCJIRNtrcfrd3Tvxtfk30/+b6hplsAhHTlK+MP7n6B4OojdEVku2GHCgDfOIteL3LDU2+yphu26aZsuzHbgmeRG7drtRcSpFxCQQ9koeMowrOor1Q2trrjBF1bEDYJSNt8t/kv1F6XT21sXbb47PTN47I+moZ6CIC6vGgTAEmqPtsS0PqOU/WDA3/NCIAdjyiiI7GtoAAI5le3ADggx1aOyJ6r56VnO9l3+KSk2f+HxPJwgHM0oTehrgqA0ACYB17bOPXrtoBlCjpFRINNAJgCjB5YTcHftBI22R4SpExB0sUrVHgGf90CCppW8j6RW2Ru6/6xMQkJ4KHfPZ/IttkUgGsqiyAA6nKrMwPwp/J8f8/fZgACoJBrvME9QCB4OvTdHH03H1cgrPPG5FuxmgKfLRCHBnPb6nrcAGILyCq/kACt2qcKlhAWIe2XFQA2vj5hZBI4od8f17x1zZ0qBJxNxOm2Vy0ATO2H8pqmcgiAurxpFQAiL/3I47Ln5fmBvsiALCsgQxmArJwMDg6qpuptJP++XT/E5xcRbckAjHcIMCC4ewWCfyL4VkymIO4LvraA6LcmvERZG0wr6ZAVsWt17RIAthEVDYp6EDcFY5MvXUEnxE+6qAj3UPryH5sI9AlL3TZV0ITYUJUAKDI3bAIpRFy55mUIqyLfhxB+XS6DAKjae0NPASiNK08AxJ/anwJQDdKeCBg6UDh80v/X3/6qvPAt5qcABi2qAsFw7qCGLQD9McC+LdpZgbEEQIOP/qk3uapvNnXdmIq0W/Tmqgct20rNxyrkxm8KdGqw8wkPk21lgl8RW4uUrUIA2Npw3eZCfe4r5xNwvjlQdi7Z5lxRkVF1KOhCewiALnhpRmyMRcCDcr8sHD1TYMTp6v+OG44X/ySr/53yRMEX/5hWfUWCadGVWJnyIaCK2Owq67uBuwKEKTD5btymgKDe1E3+0a/bBJsuFmy+DuHrEiamVbErSIcwtjEoE/xdQXeca6bg65sfdQgAk5+LfB+K+r9r5REAXfPYlNqbZgCuSW/ukJR/C0A9cEw3Ll9P+Y2/yM2mSFlf/67g6KprC0CmoOOzN/S6LUjaAqvpc1Mb6s1fD0i6MNCZhNhkqhPqdx+bMv4r0qZN8Ng4+vzv+o64fGOaiybfhIxNZW8SQyE+DSlT5LvX9rIIgLZ7CPsgAAEIQAACNRBAANQAlSYhAAEIQAACbSeAAGi7h7APAhCAAAQgUAMBBEANUGkSAhCAAAQg0HYCCIC2ewj7IAABCEAAAjUQQADUAJUmIQABCEAAAm0ngABou4ewDwIQgAAEIFADAQRADVBpEgIQgAAEINB2AgiAtnsI+yAAAQhAAAI1EEAA1ACVJiEAAQhAAAJtJ4AAaLuHsA8CEIAABCBQAwEEQA1QaRICEIAABCDQdgJTJQDWLtyUlYMZ8q2ezB1q28/KtH06YB8EIAABCMwKgakSAAOnrcmFmysS/bScoAFmZSozTghAAAIQKEJgSgXACTl3fV0WN5cL/rZ8EXSUhQAEIAABCHSXAAKgu77DcghAAAIQgEBpAlMqAETi8wDHr5ABKD0zqAgBCEAAAlNNYGoFgEi6DbA0vxUdBTgkHAec6nnM4CAAAQhAoCCBqRUAZAAKzgSKQwACEIDATBGYUgHAIcCZmsUMFgIQgAAEChNAABRGRgUIQAACEIBA9wlMqQDgPQDdn5qMAAIQgAAE6iQwVQKANwHWOVVoGwIQgAAEponAVAmAaXIMY4EABCAAAQjUSQABUCdd2oYABCAAAQi0lAACoKWOwSwIQAACEIBAnQQQAHXSpW0IQAACEIBASwkgAFrqGMyCAAQgAAEI1EkAAVAnXdqGAAQgAAEItJQAAqCljsEsCEAAAhCAQJ0EEAB10qVtCEAAAhCAQEsJIABa6hjMggAEIAABCNRJAAFQJ13ahgAEIAABCLSUAAKgpY7BLAhAAAIQgECdBBAAddKlbQhAAAIQgEBLCSAAWuoYzIIABCAAAQjUSQABUCdd2oYABCAAAQi0lAACoKWOwSwIQAACEIBAnQQQAHXSpW0IQAACEIBASwkgAFrqGMyCAAQgAAEI1EkAAVAnXdqGAAQgAAEItJQAAqCljsEsCEAAAhCAQJ0EEAB10qVtCEAAAhCAQEsJIABa6hjMggAEIAABCNRJAAFQJ13ahgAEIAABCLSUAAKgpY7BLAhAAAIQgECdBBAAddKlbQhAAAIQgEBLCSAAWuoYzIIABCAAAQjUSQABUCdd2oYABCAAAQi0lAACoKWOwSwIQAACEIBAnQQQAHXSpW0IQAACEIBASwkgAFrqGMyCAAQgAAEI1EkAAVAnXdqGAAQgAAEItJQAAqCljsEsCEAAAhCAQJ0EEAB10qVtCEAAAhCAQEsJIABa6hjMggAEIAABCNRJAAFQJ13ahgAEIAABCLSUAAKgpY7BLAhAAAIQgECdBBAAddKlbQi0mMDq6qrE/wv9K1pebddWd5w2Q+2OyzXVT25TaH8h/E1lytbTmYXaaWNYpH4Rf1G2GQIIgGY40wsEWkcgv3mrwUS/oeuBxnc9DxSmQKMLgtCyVYALDVRlAmtIHVUYhAgjn5Dwjcd33de+ibmpzdB+qvAhbVRPYDoFwC3vlM3bXyvfffJz8tHnqoc22RZPyLnr67IkG7K8cFTOqMasXZCbK7tlY3lBjg5dMFm8JhdursjB/qUt6c0dklOTHVx9vSdsBqMVGR3vva/6mNy3Mzfhsnzy4pfltGLR2oWbojaxvbEsC37QY43p8MlVuWvnE3K+97BcNLV04JisHLlDbjy6Kg89Et6VeuNWhYBLDOQB2ycYbKLBJB7ysnUGEtv4wmkVLxk6nhDx0IYMgEks2qiEjKk4UWrUQWA6BcC4pHbdI5f3ykgAGLfZyupbAn0SoKQnc4cKhvGkPZkBAWAfYxL8dzwmH/jh1+WbkaPe/oq/kL++9RnLHEhF2OJmzQIgCe575Or5njxsjP4iiUCQR2W1SPSPxldWAOhz2BXUXYKhqdWkz76qvpMhQc8WyF11bULCJzB814tmAMraURVf2qmHAALAxLXtAkDS1fvuoRVo+lkUxaVo/JdZFwDGjNG8fOr175c3/+oLsvizbW2WNCMAvME9QCCYpre66s6DtC0g+AJbUwG2zO1vkkGrSAD2ja2KDIDPj0XmiU+w+MbD9fYQmCIBkN6wj7wgh/usnNe3AJIb/cvkS1dE7tu7Ly34W33V92Kjd7aufELe84zfcSfOXZf1RZHt+XmZl23Z6G3K4spS+t/91HyWxp/P2xtORydtLImh/KDcyGrfEMTTdvqdyJZNHJQSAPoYVDbqWAOZ2ewcSt1H41++IscjOMmotqJsx2deLdfzfyeMz8re9WxrY1vZJnGN0SL4kizAS37UzwoMRuISAPnWSjEGo5QOy8nVu0Qcqf0Dx1bkyJ6r9u0BA3pTOjwkWKk3fV/a3iUwXLOhTJCytecTJqbr/pk6XCKEmyuwFu2vjvK+MRSZL7626rCfNscjMEUCQAFhOwOQfH6nzN/4muz7yfejCpZV3hgZgDToXkvS6ZcSMbCZ7NXvj9Lzx6/EKeP96d57HLySpXoWSK9pqXslYKnt9Lf2tYCmC4J0v3ogGFS7RjYISgmA8SZeXjvYzlwIqEFdNeHEuUwIWM4yOMZoDfTWeVC/APAHd79A8AVbXyC3BS81KJSdBSEBumjbapu6mDAFJ12oqP357HOxcbWTXysjdsoGWFtfpuAeIqjIABSdme0tP4MCYPhwYHLz3/GPmSDIHDWuAMiCfrRRLOt7zyaB3rU/n2YNUqGgnt0bHDozBTU15Z8GpL1nHen/JEAuyqbpgOAEBcDIV8Nmp89G1/jiThoTAFV82f3B3S8Q3HbYgqVvZewKsnrgKxrsygTFUNpFg2dRAeAKsqE2xuVC7Cxqmy+oF+3TVj6knSIsKFs/gRkUANEWgHK6e2ICQD+VblrZ5qvafrZgeEL0RUWSBt8rZ0dO8esn/S1paV9wNc7D6rYAouisPZFgsNNn4xgCQCrdAqjgS3v4pKTZ/4fEfLD/gBxbOSJ7rp6Xnu10oMcMPZCrAcy1MgwJPmXKVEDN2UTR4BQyBl9gDc0EmNi7BmMSG66g7LMzhE0Z4Ve3T2l/fAIIgMYzAKJtAUSbAMYMQL7C74msWA73ZUFxY2O3LGWZhnxK6Kn1qJNWZgCC7axTALTqEGBAcPcKBP+NoS4BYAomRVb2Rcr6RzkoERLk1IyFboerfhGbfe3agrtLTNgEm8/mIsLDNV9c3Ir4iLLNE0AAmATAGO8RUIO5cQsgWa2rqXjzc/1DWwbW4DdYOQ8f8Bvdox49WKhMNl9wrW1eFrDTZ+M4GYBofPo5gPKPAY55CNAb3AMEQoC/bCu6PCj40rymgBASZItkFwKGEVwkxLayAsBkhE0IhQgAn6BwiQQX3xAR4csWxNdd9vlsD3YYBRshMEUCQH8KQOGXn/TPnwLwbQHkAeHWwRMBxZ4CSPfzbWcAhk/nK08KJKn+S+mLfuaH9/3TlfJoatz2ebriz07LR+PZ3ujJ5uKK0q6edld4WbYcapmRPjtHXuCTWZHbqNXv26hvqfgExIjPR18ENBh/fYcA63r0T/edb0XnEgCmIOALsKqwyOv7gmGV881nn28Vq9cv8u8qV+I6O30Vb2PrCv6+sZv6tIkQBECVs7b+tqZIANQPix46TCDgTYC+0YW/CTAWV2+TbxV9s2Ky+t8pT1hf/JOu/u+4UfzFP0UEQJFVuiljYAtKtiCkiwOfH8pcDxEAZQN1yGrfVcYnxnRuJo66H1wCzreC9wX3sm2X8Rt16iWAAKiXL63PHAHTS5raB8EWdHwrW3W1aMoEqJ+VCTR1kfIJAN91V9bDJHhc5U2r9JCVs62MTbD5xJmNtUmQqX34fBQyFl8bXG+GAAKgGc70AgEIQAACEGgVAQRAq9yBMRCAAAQgAIFmCCAAmuFMLxCAAAQgAIFWEUAAtModGAMBCEAAAhBohgACoBnO9AIBCEAAAhBoFQEEQKvcgTEQgAAEIACBZgggAJrhTC8QgAAEIACBVhFAALTKHRgDAQhAAAIQaIYAAqAZzvQCAQhAAAIQaBUBBECr3IExEIAABCAAgWYIIACa4UwvEIAABCAAgVYRQAC0yh0YAwEIQAACEGiGAAKgGc70AgEIQAACEGgVAQRAq9yBMRCAAAQgAIFmCCAAmuFMLxCAAAQgAIFWEUAAtModGAMBCEAAAhBohgACoBnO9AIBCEAAAhBoFQEEQKvcgTEQgAAEIACBZgggAJrhTC8QgAAEIACBVhFAALTKHRgDAQhAAAIQaIYAAqAZzvQCAQhAAAIQaBUBBECr3IExEIAABCAAgWYIIACa4UwvEIAABCAAgVYRQAC0yh0YAwEIQAACEGiGAAKgGc70AgEIQAACEGgVAQRAq9yBMRCAAAQgAIFmCCAAmuFMLxCAAAQgAIFWEUAAtModGAMBCEAAAhBohgACoBnO9AIBCEAAAhBoFQEEQKvcgTEQgAAEIACBZgggAJrhTC8QgAAEIACBVhFAALTKHRgDAQhAAAIQaIYAAqAZzvQCAQhAAAIQaBUBBECr3IExEIAABCAAgWYIIACa4UwvEIAABCAAgVYRQAC0yh0YAwEIQAACEGiGwJQKgLfKwgOn5eW7MohPnpYffPrzzRAd6uWEnLu+LkvzW9KbOySndAtueads3v5a+e6Tn5OPPjcB8/Iu1y7IzRUx29igWW9/xV/IX+/4R9n3k+/X1uvahZuyIj2ZOzTijdr6LNNwV+wsM7bhOul3ZHFzWRaOntGay74/siHLC0dFvxred/49TGtsb5j6Cm+NkhCYFgJTKQBe+pHHZY9MKugPpsaJc9dlfXFzzJuXY6rtukcu7xX55MUvR6Pt+t+8fOr175cjz3+tVgHQdUqzaP+4Yqj27+EsOoUxTwWBKRQA6ep/xyNvkMvfmaCPTpyT6+tLcq03J7UtNqdBACRj2Ddw1I3uCIAksOw92/psQn3fgnRlvfesY47H2aXjV8YTwcl3aVE2lxdkJEkQMDj8FACJIjNJYHoEwL4H5XUr75YXmNyobgHo5azXnpaf9/5GdqzcKy+K23zmq/Ljj98voZn65KazdM2QVs9Wun1Dn5Xz+hZAsjXwMvnSFZH78uD428fkAz/8unwzMiVJld/6YuOE3bryCXnPMyFzeU0uRHn/g/2ilm0Ka1PDadXhYtuyUeJmfe+rPib3iU0A5PaWaDvZ4hiMVLbG2wJIVqRxc4XbMTFTxuO1U/fZgPqWKjQz8TmfXTanvMfg2e+2vABIvx+5hb60vGubwD/XEQB+RpSYTQLTIwD6/vug7PvsvSJfNmQAsuD/m/61tOyL9DMCfZFwUa5+6H3yyxJzIwkSuz17l7YzAMnnd8p8fzWcioY3/+oLsviz7YE1VWUAWnIGoDYBoPivfDp5ELzL7iGP9n1C1tb2y6VLp+SMtsEdaufIPBvJPKWBPlKiWiZqsgJg4JKw4B70fbJ8T+O6x6+w71/iNkaVKScwUwLglmPfkNfsf2x4JX/3F+WN98hwoE8EwJ3ybO8dcv1yuRkQdAN3CoDhw4HGA3IzJQDK+UGvFeQXQ1fxKvJBud9wUC3UrkxAXAvLPoTYaQqKpnrVroADMj/7tYyLimgka1KnAMhETuFMTahPKQeBbhOYKQFgPBxoCvZVCYCxMgDRFoByuK99AiAgEBQ8tu3OAFTzRQsJrOaexs8AiIym8IdS9wUyFeaDbQ6fbI97kt5EpfwWABmAauYzrUBgHAIzJQCazADYzwAo7nJmANouAMaZdua67RYAA5vLngE4sbYmcipK9+dNOQ6KuoSK61R7s+nupgRAWJbANiOrzYBUP+9pEQKTIjBTAkAKnQEYbwtAQp4CGFcAVPUeAc4AlPr+FQos+QG/oZW4bX8+yhVY3lfgFZZJP7uVQ5i2Z+k7dAaApwBKzU8qQcBHYHoEgPUpgPg0v7KXH/wUgIKu4BMAgwWe6T0A+lMASj/5Sf/8KQDfFkBUVX8ioPxTAIodTe6Z6o8B9s24rL3fYIyApZ+uHxpqjY9pjnz7RlP0Q1sAXjvb9hSA7/Ziv64/BTAoOfqUR/ltm7RV3gNQ3k/UnG4C0yMAWuknz5sAW2lzm42KA+Db5Fumtyq22ezW2tZ2nrwJsLVTB8OmggACYCrcOAuDSFe/u3mNa0XOhmdFIGkGAp0lgADorOswHAIQgAAEIFCeAAKgPDtqQgACEIAABDpLAAHQWddhOAQgAAEIQKA8AQRAeXbUhAAEIAABCHSWAAKgs67DcAhAAAIQgEB5AgiA8uyoCQEIQAACEOgsAQRAZ12H4RCAAAQgAIHyBBAA5dlREwIQgAAEINBZAgiAzroOwyEAAQhAAALlCSAAyrOjJgQgAAEIQKCzBBAAnXUdhkMAAhCAAATKE0AAlGdHTQhAAAIQgEBnCSAA6nTd3V+UN94jcvVD75NfGvt5qyw8cFpeviu7+ORp+cGnP1/YouTnUg+O/oxq4YbKVBj5Cdst6Zl+rc/xm+6p/YPOt6fuB38cv2qX8NstG8sLcvSMzwH6zwlbfJ75ZOinhn1Nm64P+dbi1zLtUgcCEGgFAQTABN3w0o88LnukXNDvm53cpMUcdJsYW6X9pwFucXNZFvzRsInRVdeHJdCX/q17h6BKjPZd944s/bXAaGLJoVPewhSAAAQ6SAABMDGnpav/HY+8QS5/p6wRLfhJ14kLgFg0PChyf8gKuiznKuqZfDVGkA0I8KXFRTLc2LbjciUoM1EFH9qAAASaJoAAqJz4B2XfZ++VF/XbvTi8BbDvQXndyrvlBaZ+i24BeNLHJ85dl/Wl+X5PQylhPb27fEWOry9JUnqrJ3OfebVcz/8tcar5rOxdX5EkU7+9IcsLRyXJWDsFQGDKum9h2QzAoJ9S2wcZx+3teZmPAGz1eiIr6VhVZk6eSUBekghUP3uRl8/bGAnIJnbalop1PAECwO0b38RHAPgIcR0CXSeAAKjTg84zAKlQkC+XzwCkAeaaMf2f7qsP9m2tZfOAowZ1lUkW2ObFsgccmgEICVhSVgDkBiuCIxYxoblrVUjtH2ypXIr57j2btBPGU1nRX4oFwaJsqitojZUuCFIfxRoiy2a4BF4Iz8x318qk8ZO6e+Ws6TxHnd8Z2oYABBojgACoE3UTAmBxc7Aad43FFjB8AdwXaHz1+7HZEBBH7B1XAAwajIPr274VuH+tjiH+7+NXEqbR3oKs2/g6eaYnGkcP4akp/3Sse8+6bHRsEfj8EhtQUgCMCJE6vyO0DQEITIwAAqBO9E0IAEsGIB1WGkAGB+wNp8Z9AdwXaHz1GxUA42QAsoOUTgEQwDPLYizNmzMm/VV/ssViWmHr2yYmIZEHdy3DoM/lkgIgaYYMQJ13BtqGQCsIIADqdEPNAiDd4zU/QqanrK2nwn0BvBMCYBA0Sz36FpAB2K9tqdh45gG+JyvR/xm2IbK+NjZ2y1K2vTDQSNoWQCbgjCfxfX5J9N84T4hwBqDOWwNtQ6ANBBAAdXqhbgGQBYjdI8/Nj6bSrWldX5DwBRpf/dozABU8BeAVAH8nf6I9nmjkOcTClr4fZBF0sWI+JHjQsJUQlgHgKYA6v9y0DYHuE0AAVO5D/SkApYP4lP9X9lmeAnhaft57h1y/XNAgWwDuH95L29ve6Mnm4or0U9PaafN+r/nhOa1+/7p+WLDQUwDK2IyHDqs7A1CIolcARE88eHgmBwajJy5MT1roJ/ntL27SthgiXySZhP5Lnka3B6x+8Qk3L6AxHlH0tk0BCECgDQQQAG3wwpg2dOJNgI4xTv+bAMd0cNHqmbgrtR2i9jUkEnkTYFE3UB4CbSeAAGi7h7APAhCAAAQgUAMBBEANUGkSAhCAAAQg0HYCCIC2ewj7IAABCEAAAjUQQADUAJUmIQABCEAAAm0ngABou4ewDwIQgAAEIFADAQRADVBpEgIQgAAEINB2AgiAtnsI+yAAAQhAAAI1EEAA1ACVJiEAAQhAAAJtJ4AAaLuHsA8CEIAABCBQAwEEQA1QaRICEIAABCDQdgIIgLZ7CPsgAAEIQAACNRBAANQAlSYhAIH6CKyurkr8P9dffl0t56sTtxdaJqRc3p5eNsT++ujRMgQGBBAAzAYIQKBRAqHBUzUqJIj6gr0v8Pqu5/aElkMANDqt6KwEAQRACWhUiQhYf3Eu+8naaz2ZO3TKi+pE9jO6eUH9p3O9DXSqwOjP+drGm/xCYvRjwKMMtZ8Mlm3ZWF6Qo2dqBHHgmKwcuUNuPLoqDz1i7ufwyVW5a+cTcr73sFwsaYovsLqEQ17XV8ZnWog48dmpC4XQNn22cR0CVRNAAFRNdGbaswT60r9Dn7a3uLksC7VGs0k6qOIxlmZdjEES3OVRWbVF/0Qg7JGr53vycGD0DwmKaiC1rb7VYOwLzONeL5oBsPXns6OYdygNgfIEEADl2c18zXT1fk16c4ckX+snny1uyvLCUSm2KK04OLbSOxWPsQkBEBDcvQLB4AtTECz6mV7eF1hDRIdvG8E3rfL6tv9vqh9il69frkOgDAEEQBlqra+Tpol3b2/L/Py8yFYvSiavyMrByPDovwdpZS2dvL2hBO7smlo+S/v309YjAcgU4PS099aQYBigLBkcM5uMLhkaq89pLjuHr8XjP7t3PeWZp+D3X5Cb6QcxZOktX5Hj60sS0VeYe8aoj8Vnv0MA9LdWfG14sBw4tiJH9lx1pPYPy8nVu0Qc2wPjBj09mNraMwXSOoJriNDQtyTIBvi+f1yfBAEEwCSo195nJgCiQLVwdH8iBqKoK4cunZPr63vlbLxiT4LHkkQbyFnKXa2Tr93VgKW009/a1wLaSEDSRYTrfEBJAVAJy1A7B0JgK+ZpOuKQB/EhMZUbGT5G+xkAZcC1CwB/cPcLBLODiq72Q9xs2w4oIwJsddTA7mtXt8c2Bl87IWOnDATKEEAAlKHW+jppQEuC/qn4v4/LlfigmMRBf1E2LYfGjEEnEwrxStZ0YG0o5R8Hv+NXnOl/+xZBeHBsAr/ZzgAbEwEQox9siwzsDaifFR5XAFTByB/c/QLBFfT0wBcqCuI2fWV92wO+VbzP7pD6NkGith3SThW+pA0ImAggAKZyXoQLAP0U/vAWQQonCUYHLafNlVXov3z4phy/YjjEp6e2x1wdD7mssi2AZKBKGj9RPJqYCQjgUyMADsixlSOy5+p56dlO9h0+KWn2/yGxPBxg/XYVWfUW2QJQy/r2811p+ToEABmAqbzZdnpQCIBOu89mfIAASLIB6hZAFui1R8/ylXBvc1FWjIf78qC4IdeWFtNMQ//03+g5gnZmAELtnCEB4A3uAQLB893yrdJd1avKABSxoUhZPUvBGYCpvNF2flAIgM670DSAAAGQHFpTU9WGQ39De8z24NfPIugrZsshwSXRV9bxGAKCa12+CrYzwMaWZADGOwQYENy9AiHMWUX21NWgaqrnSrmbMg56tsCXjh9XAJABCJsTlGqOAAKgOdYN9hQgAKJVepraz82KTq73RFaiD5K9/n/5cJIOH9r3z88D6CfLbZ/HYX3oRT/RNkJvUxZXotPxWRsjWxB9Sg284EbxiNvOS8k7CpaSI/3qn2KjbStiiFXBpwCUroyHDus6BFjTo3++AOjbFrAFeJ8YMK3Gc1tsWwa6qZfNrgAADHtJREFUrWVW8JwBaPCWR1elCCAASmGjEgTKEAh/E6C99fA3Acai5kG5v+CLldLV/x03HC/+SVb/O+WJAi/+MY1H39v37dmrbfhW43rwNdUNzQAUzQyo4sInMHxtl5ll1IFAKAEEQCgpykGgQwRML2lqi/mhh/r0oJ2v5ENW777Aatt6MAVsX2ZCtUsXMT479LG0xUfYMRsEEACz4WdGCQEIQAACEBgigABgQkAAAhCAAARmkAACYAadzpAhAAEIQAACCADmAAQgAAEIQGAGCSAAZtDpDBkCEIAABCCAAGAOQAACEIAABGaQAAJgBp3OkCEAAQhAAAIIAOYABCAAAQhAYAYJIABm0OkMGQIQgAAEIIAAYA5AAAIQgAAEZpAAAmAGnc6QIQABCEAAAggA5gAEIAABCEBgBgkgACp3+vAvvg39nG7lfdEgBCAAAQhAoBwBBEA5bmG1HL/XHtYApSAAAQhAAAL1EEAA1MM1azX97XbpzcmhU7V2ROMQgAAEIACBQgQQAIVwFS2MAChKjPIQgAAEINAMAQRArZzT8wB7z5IBqBUzjUMAAhCAQGECCIDCyIpWSLMAB7c3ZHnhqJwpWp3yEIAABCAAgRoIIABqgDpokgxArXhpHAIQgAAEShNAAJRGF1KRMwAhlCgDAQhAAALNE0AA1MocAVArXhqHAAQgAIHSBBAApdEFVOQ9AAGQKAIBCEAAApMggAConDpvAqwcKQ1CAAIQgEDlBBAAlSOlQQhAAAIQgED7CSAA2u8jLIQABCAAAQhUTgABUDlSGoQABCAAAQi0nwACoP0+wkIIQAACEIBA5QQQAJUjpUEIQAACEIBA+wkgANrvIyyEAAQgAAEIVE4AAVA5UhqEAAQgAAEItJ8AAqD9PsJCCEAAAhCAQOUEEACVI6VBCEAAAhCAQPsJIADa7yMshAAEIAABCFROAAFQOVIahAAEIAABCLSfAAKg/T7CQghAAAIQgEDlBBAAlSOlQQhAAAIQgED7CUyVAFi7cFNWDmbQt3oyd+hU+z2AhRCAAAQgAIEJEJgqATDgtyYXbq6I9OYEDTCBWUWXEIAABCDQegJTKgBOyLnr67K4uSwLR8+03gkYCAEIQAACEGiaAAKgaeL0BwEIQAACEGgBgSkVACLxeYDjV8gAtGCOYQIEIAABCLSQwNQKAJF0G2Bpfis6CnBIOA7YwtmHSRCAAAQgMDECUysAyABMbE7RMQQgAAEIdIDAlAoADgF2YO5hIgQgAAEITJAAAmCC8OkaAhCAAAQgMCkCUyoAeA/ApCYU/UIAAhCAQDcITJUA4E2A3Zh0WAkBCEAAApMnMFUCYPI4sQACEIAABCDQDQIIgG74CSshAAEIQAAClRJAAFSKk8YgAAEIQAAC3SCAAOiGn7ASAhCAAAQgUCkBBEClOGkMAhCAAAQg0A0CCIBu+AkrIQABCEAAApUSQABUipPGIAABCEAAAt0ggADohp+wEgIQgAAEIFApAQRApThpDAIQgAAEINANAgiAbvgJKyEAAQhAAAKVEkAAVIqTxiAAAQhAAALdIIAA6IafsBICEIAABCBQKQEEQKU4aQwCEIAABCDQDQIIgG74CSshAAEIQAAClRJAAFSKk8YgAAEIQAAC3SCAAOiGn7ASAhCAAAQgUCkBBEClOGkMAhCAAAQg0A0CCIBu+AkrIQABCEAAApUSQABUipPGIAABCEAAAt0ggADohp+wEgIQgAAEIFApAQRApThpDAIQgAAEINANAgiAbvgJKyEAAQhAAAKVEkAAVIqTxiAAAQhAAALdIIAA6IafsBICEIAABCBQKQEEQKU4aQwCEIAABCDQDQIIgG74CSshAAEIQAAClRJAAFSKk8YgAAEIQAAC3SCAAOiGn7ASAhCAAAQgUCkBBEClOGkMAhCAAAQg0A0CCIBu+AkrIQABCEAAApUSQABUipPGIAABCEAAAt0ggADohp+wEgIQgAAEIFApAQRApThpDAIQgAAEINANAgiAbvgJKyEAAQhAAAKVEkAAVIqTxiAAAQhAAALdIIAA6IafsBICEIAABCBQKQEEQKU4aQwCEIAABCDQDQIIgG74qWErT8i56+uyJBuyvHBUzqi9r12Qmyu7ZWN5QY4OXTCZmLUzn1/bDqzX8HDpDgIQgMAMEkAAmJx+9xfljfeIXP3Q++SXMzgpkiFbAv3ahZuyIj2ZO3SqGJkT5+T6+qJsBgmHYk1TGgIQgAAEihNAACAALLNmTS7cXJHdG8uy0F/qp59Jb06Kxn9BABT/dlIDAhCAQI0EpkcA7HtQXrfybnlBAutp+Xnvb2THyr3yovifz3xVfvzx++W55NoHZd9ns8/jfz55Wn7w6c8nV2459g15zVtuNeL+9ZffIJe/k5XZ/5jS3ltl4YHT8uJL98o/P/wPIkn24EDWxkW52rsmt+V2ZX299COPy21PnZZn998rL9+VFs3bD/J1tjrf3p6X+Si9vtXriaysyMGo8pYSnE+cuy7rS/38+9C1NCAvSZST7wf4vHzexshqP+k3jv+HpL/+Tz6Le07/tocEgzIajwDo27pVIrsQBI1CEIAABCCgEpgeAZCPqi8EouA7ksJPg/8Lv50Fa9GCd96GYwsgEQkuATDURiQEhsRHejEWAHtuj0XKO+T65eiDolsOanp+/yAoX4oD/t6zSXo+Cd4Ht/rBOg2w14aDtygr+kuGFL0W8HVBkLYZa4jsPIDrfAACgDsPBCAAgVYRmFIBcKc8mwdXBfdo8M6C7+FryoreHZCLCQDzOYJEAMgg85BmJf5UnjfYbJwtamCO//v4leSwXnRyT9YXN0cP7sWN2AKwsoJXswdpv2rKPz3Qt/esK/3v2CJgC6BVX3yMgQAEIDBTAiBdeZucrmULKssA2AXAbU/lWYjYnroEQBqQlQS94RR+flJ/kC1QCfVX/Z95dbRlsFfOqun/pKB+0n94G6LfFgKAuw0EIACBVhGYKQGQrN5v+5v+nr/VE1MgAPZrWwC2DEAe4HvR2X7j6f4s27CxsVuWsu2FnNvIFsBQxkCjiwBo1RcfYyAAAQjMlACQ7HzAb7IDfbH706yAlgFIypm3EdL9+ldo+/cH5Lf9cwXZpHKIiPQQYJ0ZgL+TP4nS9Yub+gE/Zb8+yfCrh/ps6ftBFkHfIjAfEjw4fNhwoBacjwFyCJCbEQQgAIFmCUyPABh6CkCBOHIIz/4UgIpefyJAPaU/dO3Jr8rPX/5uy1MASovK0wb1C4Do5T3ZKf/8GYDtjZ5sLq7I0nya6k8ODEZPCAwF9ew8gH6SPz1QaHqJj7bFEJ3gTzIJ/bKj2wN9ItvDLxlCADT7xac3CEAAAtMjAPBl5wnEIuBBuV9570Dnh8QAIAABCLSWAAKgta6ZLcPMjynOFgNGCwEIQKBJAgiAJmnTFwQgAAEIQKAlBBAALXEEZkAAAhCAAASaJIAAaJI2fUEAAhCAAARaQgAB0BJHYAYEIAABCECgSQIIgCZp0xcEIAABCECgJQQQAC1xBGZAAAIQgAAEmiSAAGiSNn1BAAIQgAAEWkIAAdASR2AGBCAAAQhAoEkCCIAmadMXBCAAAQhAoCUEEAAtcQRmQAACEIAABJokgABokjZ9QQACEIAABFpCAAHQEkdgBgQgAAEIQKBJAtUIgKGfnjX9bGyTQ6IvCEAAAhCAAAR8BKoRAEovya+6LW7K8kL0m/S+3rkOAQhAAAIQgMBECFQuAGTtgtxcEenNHZJTExkSnUIAAhCAAAQg4COAAPAR4joEIAABCEBgCglULwCS8wB75SwZgCmcLgwJAhCAAASmhUD1AiAmk2wDHJTtjWVZOMpJgGmZLIwDAhCAAASmh0D1AoAMwPTMDkYCAQhAAAJTS6B6AcAhwKmdLAwMAhCAAASmhwACYHp8yUggAAEIQAACwQQqFwC8ByCYPQUhAAEIQAACEyNQjQDgTYATcyAdQwACEIAABMoQqEYAlOmZOhCAAAQgAAEITIwAAmBi6OkYAhCAAAQgMDkCCIDJsadnCEAAAhCAwMQIIAAmhp6OIQABCEAAApMjgACYHHt6hgAEIAABCEyMAAJgYujpGAIQgAAEIDA5AgiAybGnZwhAAAIQgMDECCAAJoaejiEAAQhAAAKTI4AAmBx7eoYABCAAAQhMjAACYGLo6RgCEIAABCAwOQIIgMmxp2cIQAACEIDAxAggACaGno4hAAEIQAACkyOAAJgce3qGAAQgAAEITIwAAmBi6OkYAhCAAAQgMDkC/x/SRzGFJhb4bwAAAABJRU5ErkJggg==;" vertex="1" parent="1">
          <mxGeometry x="-580" y="121" width="441.86" height="378" as="geometry" />
        </mxCell>
        <mxCell id="Jp0leE43ZLa_niD7ZrZm-29" style="edgeStyle=orthogonalEdgeStyle;rounded=0;orthogonalLoop=1;jettySize=auto;html=1;exitX=0.5;exitY=1;exitDx=0;exitDy=0;entryX=0.5;entryY=0;entryDx=0;entryDy=0;" edge="1" parent="1" source="Jp0leE43ZLa_niD7ZrZm-26" target="Jp0leE43ZLa_niD7ZrZm-28">
          <mxGeometry relative="1" as="geometry" />
        </mxCell>
        <mxCell id="Jp0leE43ZLa_niD7ZrZm-26" value="最大值" style="rounded=0;whiteSpace=wrap;html=1;" vertex="1" parent="1">
          <mxGeometry x="280" y="390" width="120" height="60" as="geometry" />
        </mxCell>
        <mxCell id="Jp0leE43ZLa_niD7ZrZm-28" value="return maxVal" style="rounded=1;whiteSpace=wrap;html=1;" vertex="1" parent="1">
          <mxGeometry x="280" y="580" width="120" height="60" as="geometry" />
        </mxCell>
        <mxCell id="Jp0leE43ZLa_niD7ZrZm-40" style="edgeStyle=orthogonalEdgeStyle;rounded=0;orthogonalLoop=1;jettySize=auto;html=1;exitX=0.5;exitY=1;exitDx=0;exitDy=0;entryX=0.5;entryY=0;entryDx=0;entryDy=0;" edge="1" parent="1" source="Jp0leE43ZLa_niD7ZrZm-37" target="Jp0leE43ZLa_niD7ZrZm-39">
          <mxGeometry relative="1" as="geometry" />
        </mxCell>
        <mxCell id="Jp0leE43ZLa_niD7ZrZm-37" value="最大值" style="rounded=0;whiteSpace=wrap;html=1;" vertex="1" parent="1">
          <mxGeometry x="460" y="390" width="120" height="60" as="geometry" />
        </mxCell>
        <mxCell id="Jp0leE43ZLa_niD7ZrZm-39" value="return maxVal" style="rounded=1;whiteSpace=wrap;html=1;" vertex="1" parent="1">
          <mxGeometry x="460" y="580" width="120" height="60" as="geometry" />
        </mxCell>
        <mxCell id="Jp0leE43ZLa_niD7ZrZm-45" style="edgeStyle=orthogonalEdgeStyle;rounded=0;orthogonalLoop=1;jettySize=auto;html=1;exitX=0;exitY=0.5;exitDx=0;exitDy=0;entryX=1;entryY=0.5;entryDx=0;entryDy=0;" edge="1" parent="1" source="Jp0leE43ZLa_niD7ZrZm-41" target="Jp0leE43ZLa_niD7ZrZm-43">
          <mxGeometry relative="1" as="geometry" />
        </mxCell>
        <mxCell id="Jp0leE43ZLa_niD7ZrZm-41" value="" style="shape=image;verticalLabelPosition=bottom;labelBackgroundColor=default;verticalAlign=top;aspect=fixed;imageAspect=0;image=data:image/png,iVBORw0KGgoAAAANSUhEUgAAAm0AAAEOCAYAAADbgyDXAAAgAElEQVR4Xuy9e2BU1dX+/4RcIDdIBpIMEAKEJFyScBW5KBdNvKBtUX9g3xe0RloKaKVa0qqUFrVKtQ3SorxA8atYhff7FaulrVArUeSOCCHcIRAghJALJCEXQiYk/tZk5iSTyUwyZy7JTPKcf1rDOfvs/Vl7znnO2mut7TVo8PDvwIMESIAESIAESIAESMCtCXhRtLm1fdg5EiABEiABEiABEqgnQNHGiUACJEACJEACJEACHkCAos0DjMQukgAJkAAJkAAJkABFG+cACZAACZAACZAACXgAAYo2DzASu0gCJEACJEACJEACnUq0BXoBlcyV5awnARIgATcgEIgAr0rcMHkmB3gFyn9XukHfPKMLfKd5hp2c2ctOIdoS+4UjJbk/BpafwyMfFzuTn1PbCvAZjD7IxdlbnfWhFYg+fpFAzWnkeYC41nr7IBa3sLPWqdPAoxojA48yFxA0GT7Iwq2KK+3Xce/JmDV0BqYMDELW9jlIK2/sysQhH2LBIB0unvgYGy9swQkPeA64EmTLvy8Nlv8iBuF5BUj/8hLWF9a5sits200IdHDR5o0f3DMMKcMDge/qUHL4OH78pZsKouDn8VbSeIR46XB2xw/x8jU3mSFt2I2Jce9iQXwooDuNjz97AZvb8N6qbxUYjc0TYhHkdQtnD6RjXqnqFjz/AjLwLBvGrMDon4xGEKqR9/G9OPtt23c/IOBpLJ2ajD5d5d5V2dj21SK8X93Yj2GRy/HzUdEI8JG/lR7Fxl2/xdaatu+nW9yx1d9XIH795DCM0XjL+02H3J3H8eKBarjpG84tkHaETrhOtHmNxxOjforkKHkJy7Kk4cjG1k8XYWMbkZs8ORHPjhXBVnoFGzddxMdlbXRje27j/xzeTJ6MMK8SHPhqDlaafH3a01zbXZOCVx+ejv6XN+Pxb9Y7dNsRA9cgdUQEcH0fVn/1BvY41Jrh4mHaJZjVFzhx7FVsNHk5ONx0tyhsmDgUWq9y7N+3B4vd9Unp5YcZyYMxS//hIsf5L/Zh0RGHR29owFMYOGm4Ht9M5O8wfN5khHhfQ/a7jyD3bBuPyEeeFffJs8JPh7zDq/D78ztg8VvHKxEzRjyP6QNlzl7bgbQdK5DphK6Ghofj5RnRiPSXxsou4U/rLmOHE9p1WRM2/r5C+/XG73/QH+HdanH6nwfw4hmX9YgNuwEBl4m25IQP8URsIGpKLyGvTPlUysX2gyuwrS0G3q0XVj4Vg8jqYvzjvTNYf6MtbtoZ7+E80eYKevXLLUOBzG2PNVmGccW93K7NgGC8/MOhSNR0qfc0w6uLc0Wb2w2YHXJnAso7ofTkKjx/ahtafiQPxhPjXkFyHz/kHXwGz+fkOjS08WPj8OwkDfygX0KU30O5B4g2FSMO7N0Pa+TrNLDyCtatuYitKq7lqZ5FwGWibdbtn2Ja3wJ8/c/5eOdW20OJHDsYKyeHouSbQ/jxTl3bd6DT3JGizT1NHSrxLoMx0KsWhRmnsOKqfI3fo/E80SZel+QBD6Bv4Rt43129me45AdysV9Px4v0pGOZ9Gpu3vICPbYlV85eQkfslZKRgG57fswp5do5o/KRE/Op28dqVX8XWTy4j/OERGIOOJdr0aGb9YCxmxNbi6MeHsPSinbB4mdsTcLFoa205NBBjI3+D/44fjLAAA6ua0mx8/c2r8oAuaQLPIAIlBuLzU4id8AD6d5d/rtWhNGcz/nx4I8w9/SkPjccPBlXj4MYMvGYl5tbQZmUzL4ylvzf8bccmYPBMjIjQx8nJymvOFvw1Yx0OmD6EjEvDUyJD4SvhBvWHrgQXj65HWo7pksBkpCY/hxHBpkNt3h/lXwMC5mJxw9grkXdmE7ZjpgT1NvUkqeqrNB7QdSaeGjMdI8JlTPqlbIt91fdiMKYNeRoPxfVDgH5cZWKPvWKP+8Qe9i6PBi/B2uQxMJrfMNTyg1i97dVmy6M2j6vPcnwwLrqFH591xi3/YoOQNvEOjDKsNBqPCmTs2Y1UtxMUEqT8lBYF/zyFP1wS78LwOHzSqmjzxZBHX0TK2J4Sb5SFz5a/jZ3XzYm0EYN6sZaC6QnRCPGx114ReO+ekYiqzMKmE8CkxGhou8nEra1AzolDeDG/CvnK8PTxQxMlRrHgMJKOFDQOutnfDW1qso8gq1c8RgXfQs6RvdgSMBLzY0KA6svYuu8Y0kzisKZrEzBnsBZBfsaHQd0tVOSfwLsnr2CzvbHjPg8j/MmfIEaC+X3EcaQ/6nQVKNz5Ds5+8Wm9P8lw/BBRS57CgKCmc/bCOw8ix/yhOfWvmHx/fys/gYs48cKPcNX0XyOeQtQPH0RUnyC978rK/Y0XBIoAu1cEWN4WzNu/rhUvm3KTZKTe+zRGBMh75O/2h9VMvjsRc/1z8YctJTj6nT9+PdcG0dbzXjz1cxmbLKWW7Hsbb/wtq8VHg7V3SfOLjB+5Vp5xkili9zMmcEQcPkjWoORABn68w5mxIC0/FfmvbUvAqaLNED8kMWxyBPSKFiFWiaKcApMfaNPl0ZiolVg6ph9wqwR5eSWo8QlFn94idFCCzC+fQVpZ45tQ8dwVFcq/f5eL69W+6NGnnzzQgRsnV2DeqabRCSkzRLT1L8bWN89gnZWvOntEW2mpL/xqC1AkXesRIfeXgNqa8xvxs8ObjOOMxKzbl4sY9Kt3wV8s0T+9pa/Gc5u6+hMxK16+PrsZjK4ws7iU1xAPIuO9dqn+/gFhEfCtrkGIvCtMr1HG1Xpf9V2Th8i9EmfiKwK0MLuea0BYP4TJw8p8GaMhUUCxV9dQ9Bf+pT1DEWKvaOuagtSERMgQ5AhEWFQEAloRba2OK+Q5vDpIslD1w+seiT7SeGm+zJkGh2uJnTFuXZEaOxjx+iBqOYJCekPj77hoMyzhNlGCTZ4CF/c/jCWq3QxdEOoryTeKeLBJtMXiv377M4w0fkTk/PPn+J9mQT+uYdAwYBFr0wfNxQPDDB8GNSWn8fWht7GpLNfGF30TVWEQbVXlKPaW32NpMSrgD21YCPz0CSQHJYFESSZXK9oqi6GrFLghEdBIW7rqEuTrghClkR9O7gEknTQ0PCp8JNL0cZp1FcgvKEf9FAzQIKqHTKKiI0g9fAUZqp/5o9Hr6RUQRNLsFVwtMEzsbn36o7vcvnj7czj270PGVpOhmf0jhBu/irpp5ZzAClgUbYm/w5DxZqLNvyd61Yuyizgmoq0h977nrzBMRE0vwXoj7yIqqhrvX3Hof3Doo//XdFTGjzOcWoV5J20NkAmUJdIPZYm0tY//lgEG+oqkrKkzBujbKNruehavPzDQ0HDpPqx77X9xroXbOE+0OfD7kiXSD/QBvBmZePxLMQiPDknAqaKttZdP00SEB/DifXMxzOcStv1nId43vlwCQl/BiqmJCBARME8C25W4B8OPQgJYD/wWz+eeNhjD92m8+WAywm4cxDv/eRVfm5hIEW3/WC7xbFZMp160yQNKHjrPyUOnvl++c/HGvQ+gj6/pl+BMLH1wFmJqJfPp35L5pNzbPwUvDktEYHE6lpzfYrFHLf3w+/RfgzdGR+DG2fV47uhmw/295Es0Sb5Eg5t6Igzt2NJXwBBn4ouLe+djSb7Ru6m0GyTj2ixfuPWi17i80U2WvD+TJW+jvWIiV2Lx2H7wtVe0NSHR8leomnEpzboypi11+H2YFuG4aDP92LE0MS6fW4TVjman2iTagNC7foan7hLBW/wt/rbqY5xqJXPPWQzgPUYCz59wklhTKBo9bSLVMvaKN7TC8Pdx2pFYlihC6sohJB0rMvxRpWiLKjyC2Zniwpe2NiQGGr2t4iW5UzyxdVlYsycb4pPH/KFJmBlZixPfbMczDV5L5cVcim3HcrBB9avlKcT97ofQ3jqOwy8/hYb8qshfIXpaAvwKvsCpf3xgsdVeT38tYs+KaGt2xXiE/+wNDImsxlV5lp3Yvq/hjKDZ/8HoxK4o/OwnOLXT6IXy+SEGvCDetyDxyi0Rr5xpWIwi2ix8YLc0fGWFxXkJbDaKNt9hmPHsjxAffAMXP1+F9btbTud3nmhrSkPV7yuiLz54TJQ8RZvqX5QnXeBU0WY68NZ/bMYXdDN3ueUXt+UYOWV5sfmXmGtEm4ijdAlob3hKKl+CBdizZT5W13ukjX3qeglff7kU71Q1XeZt/QFleSlIEcTmXpcpQz/ET4ZYWR5tta8SB2FcdjZ/KDZv14qg8hHh/H0Rzm0m2myxQSNlTxBtbfLAsFG0qe2LqpdKC403CPKCo/g6cwU2moVHqO2X4XyjaJPSEmt2yRKp0ohXb2xIHg5t6UksO5CDdHtEm7KMKp609BEmok2/fC510BTRNjP6Dswf1A35x3dhaV51szAO+8ZlXPLsegVn1v4G+bktL92Z3sN20dYbAY++g9tGB8GS58zQTvMl04D//gy3jUBzT54rRFvfhxHx0GAYHd+Nw7yyBzmfWMsLtVG0tWoY4/OwhfMaVoAcCNdQ9fuiaGvVah3hhPYXbc1e9i2JNnNxFokpEdMwwLcQh3M3N0kLd5loM8tCtPSFFSM/0sUSUyUrjvVHTZUOlWXncVGKRb6TZyXNXc5r6WvNmmizJErs8SBansymAtKaF8yZiQi2eNpsi0FUxkPRZiThCaKtjz5GdBs2H1+PbdXOCBJsjGlTRFQTMSexbg1/V+tps1G0wVf6MFGWaGUZsf7QVUN3sww5RZex5UKB3TFtPhJ/drvEn+nLmemPW1XVuFmSg6uHP0PuDtOYtqa/bFtFm9I+Ln2Gb1b9QUpIW2rH2ivQgifPFaItbgGGLIiXoAqz42I6Dv7pUyudc5ZoewALxiRBFjTqD0Noi8RYm4RhlF6WGOb8o7KE3hiu0RACInHDebKyYXBkWw/XoGizNsc67989XLRZN5yrYtrM482sCaQQ32QRlAMlnmoI+naXWD2J+/KVJ2xR5qv4RfZBix23R7S16GmzQWAq92wae6h0z/RhQtFmbjRVD9QWnjHutDyq9lHoLAYBXR+Q+E6pkm+s63jj8j5sOfoXbFbhqW7edzcQbfpOdfHB7JAw9A/ujtjgQGh6agxJCeLpSxNPn73lGbqEPo7utw1AULgkUPTsiZCwIPjJl2LZnj/g8D8+s2hKm0TbUCnC+4QU4a04hG9ffw43LGT/G9qpRtm5fNxsdidJiPjsKRSbxmG2Y0xb0+45S7Q1bdUtlkcZ06b28eWR57e/aFO1PGp7QKpN2aNjJPYrytxzoyx5Sqzd3yXWzpjEoMZ7ZXEmeM3C0gdmIubGPqyUwrEHLJzk3Jg22zxSrS9jKx11o+VRG8So0mtP8LS1FgtqXyKC2QRzc0+b0tsAn2TMTJiFKQPkI0cymW84tFyqQrT5S/bonRayR4NiZecLyUTO3o3p5/RBccY2bfW0WXktLIxPwvQ+VcjYtQepzooZ93kWcUsfhvbGIXzz++csiClIAkMrMW0NCQbiLXv/J8iRDFdLh7XlUatvwXbMHu0soo3Zox6pwVR3uh1Fmz2JCLaLtsQ74vHy+OAW67QNi16DFyWzy2JygVkige2iTcTZ/ZKNWbYPf95jUslbEW3VlstZ6C3X4teaHdmjtngFlUSEJgkeUtpjxpCfYmRgIQ4cfgOb6/fWdJdEBNvEaFPR5ouzu2RrMGPMuepfiZULnOVlclZ/WmzHQ0SbZfHmeMmPVpdHocHaqWMRA9nHcfdhLDMmYMwcJDFp0UESk7YNs/P0PwR1om3h0KmY1qsM+w8cwksmLimDaLtpsVyMz8gf4/n/Ho7g6vP4/M9/wlfNYuCfRczSB9CrZD8OrfyNISNVfyiirVo8ZK+Kh8zChGhRtEkiQdQvpTxIj+aJB+ZNKYkIV794HifSlQSF8dA8+hTCe1xB3sbnYZL8L5cbE7RgR5022RXh97IrglRtccLRcT1thjpt4K4ITpgl7txEO4o2oCH2q1Zqjl0usKHkh+2iDbbsiGAqhAqyUWRSRsR8GdN20RaJJya8hWStmF22SrlYaij5oZTRuJG1DvOOGbNHm5S7sBwXYZo5qLpOmy0eqWYlP6S3odHoI2UfaqQG3pKD6xuKWloq+dFH9kotDY+wOxGh6dKgseRHk3iPxjIxttug8ScXEPE63p44WEqjSAxJQesxJC3+WP3C8FZcb6mkZDgMJT+k5lZREYqNS0gXc47gJbfYLs0PKfdEQRIbDUdwMAaGd0Vl4VUUGrdIu3TwLP50yWzEw34k+xmOQXDVEfzf3/4fHDYH0tYMZHPxJxIfgG/WC3hHdZibCk+bXlYMmIj5sTLxdaXIuSbuL38pzaGv6aO7jE07jmFNvdddnWgb1Xs00hLC6mvD5Qv4eoGltFt1Ae/uOt0se3TSU3/Gg8ZqEyX7/iQ1ws6bWWE0wheuwBCJAay7LiU/rjYt+XHz6Dv4ZoMxe7TPrzDgwQQYqwrBUPIDqMi9iBvGUl5l+36EPAm96jbjM9x+m8zuqmsozDOm2jbc2WzJ00LJD5+I/tDI5bcufIZ9a/5gUivO0Ei77YjQT4vlY5RfrTdCZAk+VAqA5OZUGWLKKq9h/RdSw60JZV/c9fM03CeJ1IXbf4M3P2ujH7Wdvy/uiODOMsu5fWtX0aYPylRbXFdN6rcte482Kyx7owBnJRD6j7n7mnypqhIM+hfNiBQ0Ka57S4Rp1ma8f3oTTih14ywVljWzb2tLY44mIuhvZ6m4bt7prXj/nElf6/tlXlxXvpp3ncPIB+wvrtva0qBpmRhVNmjgGIrkmJcx01j3y/BnOz03SrB6C7/BnMzP8WShc3+k9rVm9Cjoi1BbOSztQxr84Iv49VQtbmV9jCV/2dn8So9ioE60Ad6Y3nso5sQZC+Hqi+AWncPWkxewpqH0iTrR1qxNPdHvalFxTT5Aj0tWq4XNWoInzMPCh4aJpy0XX/7lj/iPpR2c/KW47mNNi+uipgLFRz/DmU/+BzolDk02ib9NNolvUrzazKpX/z1FynnIc+BRyfyUbFHLh4XkAgvFdYslEeLsP0zub9qYir1Hpyc8hxkxUvNTaqQ5vA+x0cts9YdgcR/SMXjslR8hwf8a9q54BZtV10m071fbUHpGxTOmfk/VmbKnquw9en7rQSw6YW/FZjv7zMvalIDLRFubjsLqzbwx6/vDMSNOvpZl78WSw8fx4y9Vf667x1As9mIwfnLn65gSJpvM/0c2me9IQ3Nj6h25ayN/9Dr+K9G/bb0LHRkox9aEQEB3yaScNBlh+mxaKcWy7atFeN+keP8w7etYIFsQ6oumo1RqXe6SWpet1Ap0CeIeD+EXS+5CuDWPs0tuqrbRQPzq8cEYH66HWStZw0fw4oFqYxFhtW3xfE8h0MFFm8EMibG9MXdyP0ReP4tHPm6o6e0pNmrsp9lyqm+wVPsPlR+sxHykScxHpueNiD12KwKRmP7CLzGhZxt7F9yKATvjcgL1S96zMDEqCFlfSd1L43K9/r71nvdYKaJ+0pKn3+U9a7zBhJ/h1UckQMyax7kNu2L9VrJV3aIYhBcWYsfnOVhXSA+bW5jFxZ3oFKJNYRgo2WiVtmxU7GLodjdvvpyq33s1dxv+N3Md9tQnC/AgAUcI3IWn/viQbPtkJZ7NkaZ5LQk0IxCIAK9K3DB5Jgd4y5JobYkdW5Y5F++gR3+HuWO7u7nH2WyrOuciYGtuSqBTiTY3tQG7RQIkQAIkQAIkQAKtEqBoaxURTyABEiABEiABEiCB9idA0db+NmAPSIAESIAESIAESKBVAhRtrSLiCSRAAiRAAiRAAiTQ/gQo2trfBuwBCZAACZAACZAACbRKgKKtVUQ8gQRIgARIgARIgATan4DLRdv4EdGYO6UXQn27ABfPeHadtPa3F3tAAiRAAiRAAiTQSQm4VLRFDotB2rRe8PuuCrnZlajJv4JF+1i2v5PONQ6bBEiABEiABEjAAQIuFW0pD43HDwbpcPTjQ1h60YFe8lISIAESIAESIAES6OQEXCraZnx/LGbF6XDww0y8VtDJSXP4JEACJEACJEACJOAAAZeKtsl3j8Czo/xxfus+LDrhQC95KQmQAAmQAAmQAAl0cgIuFW2Jd8Tj5fHBOP+FiLYjnZw0h08CJEACJEACJEACDhBwqWjD8Dh8co8GlRmZePzLKge6yUtJgARIgARIgARIoHMTcJ1o8/LDrO/HY0YscPSjDCy91LlBc/QkQAIkQAIkQAIk4AgB54q2iL744LF+CDT2SFd6FYd25GBVlg4s9OGImXgtCZAACZAACZBAZyfgXNHWPRS/vrsnNPVUvREeHYrAkktYtf4y0r/r7Kg5fhIgARIgARIgARKwn4BzRZtZPyLHDsbKyaEo3PEN5h+os7+XvJIESIAESIAESIAEOjkBl4q2wBFx+CBZQ9HWyScZh08CJEACJEACJOA4AZeKtoY6bSz54bil2AIJkAAJkAAJkECnJuBS0faD+0YjJaGWOyJ06inGwZMACZAACZAACTiDgEtFW8oM2Xu0P/cedYah2AYJkAAJkAAJkEDnJuBS0RY5RhIRpoYCt6qQe7ESNflXsGgfi3907inH0ZMACZAACZAACdhDwKWiDeiCabfHYMb4EIT6dgEunsEjHxfb009eQwIkQAIkQAIkQAKdmoCLRVunZsvBkwAJkAAJkAAJkIDTCFC0OQ0lGyIBEiABEiABEiAB1xGgaHMdW7ZMAiRAAiRAAiRAAk4jQNHmNJRsiARIgARIgARIgARcR8Cpok3buw/yr+S5rrdsmQRIgARIgARIgAQ6KQGKtk5qeA6bBEiABEiABEjAswhQtLWpvQIR4FWJG9/ZcFNff6CmyoYTeQoJkIBVAp3udyTPDV95btRwTpAACdhNQMVzI8ArUN7pbVd/lqKtwaqh6N81BNerz6PUbktbudB7MmYNnYEpA4OQtX0O0spbuIF2MjT/3/2IjC7D+UWvo6VTnd1N57enwfJFcRho0nBlRiYe/9K6GB3l6yPFmG8hw5qwHR6HT+7RmLRYxW3SnGY49fbSevsgFrews9ZpnbChIX/8eu4IjOlucqqVGpB+s/+I+MQaFO39N65s2YHajipm/G9D8KP3Iyo+AIXvLEbRGRswuu0ptttXGUKr85DPDRda2wX2clFvlf3QG5svxj+Wn8F6s/upeW5MHPIhFgzS4eKJj7HxwhacsMUp48D4KNrq4UVi1pjlmBblBxTtwO93rcAJB6CaXhoQ8DSWTk1Gn67y16psbPtqEd6vtty49+0LMeiHcQiWOsS1pcdx6uXVuOmkfrRPM0YRUFmO8/mGQRefzcFrx3QWuzNzwETMjw0GdDnY9PVJrLF0Vj8tlo8Jqv8X356hiAzRUbQ5zbjq7IXAaGyeEIsgr1s4eyAd85z+tWNtYH5IuScKiYH6f++K8EHBCLQi2rynvYAhd0Wimy9QV3wGp1avRNVVpwFzj4b6z8aAeRPQU5xsdVW5yF71Oq5fdo+u2dcLowjwr0RuTpXBadjSbjq2zEM+N+wzhU1XucBeNt1X/UmJCf2QEqN/GQOB2l4ID7Qs2tQ8N4ZFLsfPR0UjQPwNKD2Kjbt+i60u/DikaDOYD9MT12JGTCBqLm7GkkPrYTWdwms8nhj1UyRHyfZcXsqkycbWTxdho/kc8knBq/dNR38/HfIOr8Lvz++w7sWLm4shC0ZIT8pw+aP1yN/r0Z/KRhJGEWDjThjTIscidYh40cpPY83+C9jUym/S8NUEijb1zy4rV6izF7pFYcPEodB6lWP/vj1Y7IQVgsTY/nj2+70Rqv9t2TRvbOizr3wI/WQuYuJE1Vz9FsdeW+/46mGvuxGWMg19+/rDW7paU5yLi3/9M65ftOBF7v8oIn80AWEaX9kjBrh5+Tiy1692jngMeRhRLyQhrGsNirdvwPnN3zptNrRfQ0YRgEv407rL2NFaR1TOQz43WgOq9t9day9behMaHo6XZ0QjUn7iKLNt3hj2Rrcs2urvqea54ZWIGSOex/SB8iV5bQfSdqxApi0dt+McijaV0JITPsQTsSLuSi8hr0yR07nYfnAFtpm1pZxbenIVnj+1DTes3kuL0NQliO4ryzj/Womc9PMqe+Wup9vwQnWg63z4OgDP4qWutVfLvfXGD+4ZhpTh8tD7rk4+iGzd9s7WPg9Ej18sREw/XxSnv4rz/8p3AF48NL9egIG9gBuXc1FZ1x09+nWHn4RWnPrNclSafmX7SqjD776HCBFV1y8VQNelJ3qK0HOWeOz2hCz/jvRH5bcbcGrDXgfG5E6XqhQBKrvO54ZKYK2e7lp7tXb78WPj8OwkDfwgzw39Z1G5k0Rb/Y3VPDcG44lxryC5jx/yDj6D53NyW+u6Xf9O0aYS26zbP8W0vgX4+p/z8c6tli6ejhfvT8Ew79PYvOUFfNzSOnfIbAxcOgGa4kwc+d06x70AKsfkutNtfaHa1wPnPHxnYsEQYE/WJmS2aVyWfWN27VWutVdLfZ/10O2YMagLdAWXsPGTKkxZILGQzvK0KTfuNxdxvxiB4Py9yHhjQ/0j3q6jbwpiUm9DD5N2fB9dhuETuqNo88+Qs92k1TsWYeSMgag98gmOvvel/IM/Ap9ehiExVchZJbFnZ+3qgfGiu6Fd9gj6+ohY/LWZWHSk2Xa/1rUiwDnPDYhXZYks267C5qqSdifWvh1wrb1aGtv4SYn41e3yoVd+FVs/uYzwhyXW1UYPbaueNnueG/7P4637xyOkYBue37PK+oqdAwbr3KKtz3J8MC66Kb7Lm/H4N+utIjWINivLoaZXBYrx7hXj5W3BvP3rWvCyyUVTX8Co6ZG4eWgDTn5g+Wt5ZvQdmD8oCDlHdyCr52gk9Za4Lq9a6K5mY/OxbKwx+bpPHX4fpkVUIGPPbqSaLFk1+7s+FmRiLIpPHgYGjUSUTzky9h9Efv8JmKYPwruehTUHsrFJEZxe/lg8bBQmaR936wwAACAASURBVIPhp1/n0R+6cuScycBrV6rQ/P1jgwgw9sEQpWY8KuW+e+S+rUxs5zx8ZQn7YVnCrq1EXvY2bD65HnucId6UcRUcwcrCnpgzrC+C9OtoN4uQcfQIUksbFX+DbTM/x5OFjYNu9nd3sBeCkDbxDoyqjydTjuZzTe0zKeWh0Rh/7TRe3FmJEtgwbxpuoObcCYh4ZTYig3Nx5jlHknzEe/YH8Z5dMxF//e5Gj4ReqLuwA+UnTbx4RoHn3yDaxBcw9HsIHhAA3bGPUHVJLSmT82MkpOJpCam4tAMH3/zIckPuMA+lZ9O1CZgzWIsgP/2PQI66W6jIP4F3T17B5mbq2RYRYP88dM5zAzC8C8TbWnAUX2euwMZKJ4g3FfaqjymV53dQwWEkHSlotH+zv0fgvXtGQpN9BFm94jEq+BZyjuzFloCRmB8TAlRfxtZ9x5Bm8g5xG3vFLZCwoXiJWU3HwT992myOT747EXP9c/GHLSU4+p0t86axCZtFG9Q8N5KReu/TGBEgGuHvFkKmHPi5K5d2btEW8hxeHRRpYOEXij7aUPhaEG3DtEswq6/EsMkR0CsaYQGVKMopMBFiFpZHg5dgbfIY4NQqzDtpvnBqZrmkFzDme5G4tvWXuPAfy5mVygu8uKwUmi41yCm/Bb/u4dAGykOw9CTSDuRgq7FZtaIN5QWoqOiCoIgwBN2qRkVVKYq9eiKquw+KT23HzEv6JAJvpA6fKmJQoi0ri5BTphcdck3PCGgkfyP/2DbMvmKudmx4ofqF4a243iIF9Ic/tL1D4Nemoi0QfbrPwtzRyYgJlYF8pxPvx1Z87Kh4Ux6cZeUoDvSCrrAcOt9gRPWSkX5Xiv279mOxMctErWhrV3tJ4H9q7GDEG2J5ERTSGxp/x0VbqG8XlNQob28b5o1dos1flkj/KEukjoo2CXd55GUkTOqOa62GM4hnbYF41uLEs/bO71B03IllfIwvNK8WPvYaXuztNg+BUeEjkTYiQoRaBfIL5HdQ/yDVIKqHTKIi+YA5fAUZTR6Jtrx87Z+HzhJtAT7JmJkwC1MGyHtDYjBrCo9i22EHxZuK54Zq0VZZDJ1+7T5EntmSPKSrLkG+LghRGlmuzz2ApJPF9VZwK3u1ItoC5bkBeW4YfBO2zBt7RJua50agLJF+KEukNjh27BRwnVu0mUIziqwAC6KtPqV3aBPXghluCwZSRNvJFZh3qpVQWqNoK/qXLK2kW7ak8mJH4REszryC/frTvORrc4Le6yEesl17kGp8H6gWbdm7Mf1cBWYOmoz5Umpk6xeHkebVGxuSh0Pb8BWnwdqpYxFTewEbdp7Gu0o3u0XgrZgIBJWex5O55gVK1Lx89Q0avgij2lS0NfIOCUzBghHJGBahj6vSofTCNnx8bCO+vmVHhL3y8K0pQPruw1hm/IqdOUg8ptFBqMjagekXDAZTLdrcxl4QIW/Zq2vn88h4mZp5o+ZcIPjZtxHX30HRJuU1Ah+cgqgJAxHQpaxlMSYlfHrck4So0T0l5k3umyYePmdlrxpfaPh2vcSzWUlAaPd5CMwfmoSZkbU48c12PHNdmRmK6CrFtmM52KBatDWdYWrmobNEW0MPlJJO0f0QIN/QNSWn8fWht7GpLLflFRZLPxIV9lIr2qLk3TFb3h3QjsQGSb02rMTIO+ROeYfUNa5uuJW9WhFtTRG6SrSpe27YvBpn50OSok0B14JoM2Vrs0FcJNryj36O2SarLwah5YuzB6XkguFDyeqL1NryKM6JaMsW0Va/BFtpEG2KgGoQbcblCD8RIfuOYtlNW9YQ1b1Q21u0KXZuIt7KD2L1tlexR+0PTHn4Gh+UDSYLipUyGdEIMvmyVS3a3MZerYs277sWoO+wHs3oVex+HcWyKm/5UDNv1Jyr7uFrsW8N2Zom/2oqxoxZ4P4S73bknwGIlXpypp97dVLK5/iy1dCJiO8iYREJEhZRe/wTHH9HH++m8lAj2tptHiofJd2Qf3wXluZVWwijMB+3updvS888S0SdLtqUmzQRb5XI3PZYyzU5WxJtNthLtWhTnuXi+UwfYSLa9OEOaBRthudR+9lLXyMt8TZ9Gqi1w9pHl7p5Y/vyqLrnhs0aQeXPXTmdos3DRFtOa3FPLhNtwDj5sb8kyxyyiCiHxNPdFBd7RQGyLl/AmkI7Y9qaTNz29bQ1dMV7jAQZP4Hkof0QUuWgaGs13sQOT5tNoq0t7NW6aLP2AG7JqwyXxbSpe/haeqZ6y7LoyEk9UXn8X8h6/9+o1Qunn8TDv16M7UDQrySrVB8zJx61upkrZFlUahPulFIcn3wLb/Gox0sYBCQ+5/iqKvSWrNKwqkYRp/oZrka0teM8hK/8rieKB93w4JA42Gp5doiHsugytlwosDOmrSmtdvW0NXQlFCPCfopZw8dLyIWDos0Ge7lKtLW3vZp86HXtDo1kZntXXkORxE0bjnwUrlpvoYYpRZvqZ4hHbxjvKk+bk2Pa2lO06SdEjMRlPdAzCNrgMPQOkv8NlaQEWRJojH0znTbqvCDt7mkzW+a4UXAQWzLszA6zOUjYdaLN9fZqXbSpfojUX6Bm3qg5V01siuWeBz8jy6vREp+2+pcNuw4oYkxXXAZ/iQ8yxLl1R9jSuYgKMfUK+MNv9m8QL16EyuJbCNZIbKojcW5qYtpsEAGu8fgaOXbxweyQMPQP7o7Y4EBoemoMSQlm8biGs9W9fPVXtK9oC8XEPs9h+vBE9NE7iCS7JPPg+3in6KD63XVUPDdcJtr0QN3FXm6xPKrmucGYNvue+fZc5WzR5qrsUVs8bQkSZ9S7eXD44hH3ISlclje3SYyVPiPU+ICwbXnUClSvMKydMhoxN7Owcp9ksjY5Tc0LVX9h+3jazAOKb1zehy1H/+JYKr+Kh+902QlioewE0UyQ1y99Axl7dyC1wh3tpe5lafvPUs28UXOumiwwK6KtPiauqWjTiwz/ny7DsKG+qM3+Nw6/9S+5+DaEvZKCqGaZqnHQvLAQAyUuv/KbdTj1vw6U4FSVPdpahqFkeLblPBRCC+OTML1PVZN4XI8SbV6RmNLvZ5iRMBgh+sQcqQ92IPN9/NUesaZMNxXPDfhL9uidFrJHjSEYMMa+NjxXbVwetfY7bRd7uYVoU/PcYPao7c95R890tmjDTCx9cBZiYEOdNqXuUwt12mz+ChYOSf3GYfGQEFTIj3aeJBjUx1P5SmLBHZJYYJpIoEq0iTibFI+oimyszGjMVIUi2nSWynSoeaG2l2iTkh8PSckPyf6qF2uZb2NztR2JB+bzT83DV5OA9DFSO8BikkkRdn55CC/pQwjdzl4eJtqUOm2yK8Lh19bLAr/6w/e/pR7b7f4o+GQxcncal2vijUukkvzaxSQxweCVK8OFNxfjmrG0h+KV89afW+NoYoKx9AhaqNPW7vNQxNlQyTrvVYb9B2Qem+zLZxABN5uVJvIUT9usMVLyI0oRa+vEs3ZUfeKBI88N8UjXJ4fBcrJT/nHJ6M/Tz3Ljx7CNos2t7OUOok3Nc0Op0ya7IvxedkVw1naYptOkU8e0JQ9cjqnK3uNKyY8bBbh41fjSvin7iB1f3wS8miBDZ+6IoEa0wTsM7905WmJIalFxtRDFNT7QhEs5D/NlTFUiwBuLRyYjKUymT4WU/JCSI/UlP0J7QdPNG7oLezAtS332aFJYLB6LUIJOjSU/asqRf7XCUBpAFhiaZ5cZprBzAopnIXV0KA6Lnbc5Q6zZ88Wsr302XoKB9duuXi9Avmyd0cBVEhaelFT8euHtBvZCkxItSskPqblVVARZ8as/LuYcwUtl6gSR6Z6ADfuJmuxZa33vSVs/DNRUNm+h7/2ksO4vpLCulMCu3+EAht0QfPQxbX84j/ClUr8NRjE2eBGGS2Fd37oqFGdfQ62/YTeEWn1M2996YKC0E2ySmKCOmOHsVndEUCPaXDIPpYRE79FIS5AHR618QOpL3+g77i8lP/TuqaoLeHfXafXZow7MQ+c8N4AZQ5cj5Mp6bJT9Jq3vdqPSqqrsJaEVDfs1lyLnmnxEKFx1l7FpxzGsqa+xqU60uZu9WiRosqesvixViGwvGSoFQBr2rJVYuPVfSA03C43Yloig5rnBHRFUznb1pyvFEa1eaSFzUI1ogxP3HlUl2mRAWj8NUuMTMEq/i7R+H0epvXb27BEsza8yCADVIkAu6CLFdYeaFdetlfYuHMO754uR3mzXh9ZfqA2lTKwaocCYzdr8BGc9fNXPHBuuUPnwbcZWX7T4wgmsuSg13dzIXg1xNC0gMF/mtYGWUYC3kDFmdXeE1ueYfg9B/8dSMGR4d/kGyMTxl9cZPwhs6ZmFc4bLBu0PT0Co1CXV15iuvLgXF9ZuwE29483odesmBW+PvvVP4I65GHhvHHrohybi7fqRr3F+479QK9mjDbFwhz/Cqfdb3WHTcmdb23vUHeahvEyn9x6KOXEmxXW/kw/Ka1Iq6bgUBjd8nZkcNsS0WSrKbdaKtXnYoZ4b5mz1RYuLzmHrSUkOayiWq0606cWPO9mrxV/p8Dh8co/iebFwZgv7kLYq2tQ8N2Tv0ekJz8n+5VLPtXQfVn/1hvqKAzY+jjq1p81GRg6dFtBdCvhOmowwfeZUVTa2fbUI7+tr1Vo4vCctQtwjUvtJ/q1WvsBPvbzaQoaMQ91p44uNL1QTj0nx2Ry8dqzZU9r2fpl8Wfn2DEVkiI4bxttOr5UzXWAvp/XNtCE/pNwTBSk1JUdXhA8KlorpZ/DIx8aaNyanet+1CLHTBiLQVzRT6Rmpdb3SORu1u2RcdjYan4Lox29DqDiu6qpykb3qdVy/bGdbbnGZUbT5m3hM8q9g0T4Hwhb43HChZV1gLxf11tSjH6jthfBAyxvGq3luDNO+jgVjJa5R6s5DvK4bd/0WW033H3byWCjanAzUshqbjCcSZ2FiVBCyvmqldo/2fvT8r8no178M5xzaaqctBtbaPYwiwOS0yoxMPP6lA1Xhm31ZVVG0tWYGm//dBfay+d5qTjS+JMRx1nBYEW36kiPxI2pQ8u0OXPpUSnS48GGqZgROP1cK/vZ4/PuIHByAwrWNma1Ov0+bNGi7fW3uDp8bNqNSf6IL7KW+EzZdYfCymnr0LYs2Nc+N+uL7sTrkndyK989twomW9hm3qZctn0TR5gSItjcRiACvStywxai+MrFqHBA3tneKZ5JAxyXgL8quSmWAnUfTkOeGrzw3Oqo49WjbsPMeQ0DFcyPAW5ZEa0ucF9fYCiSKNo+ZRewoCZAACZAACZBAZyZA0daZrc+xkwAJkAAJkAAJeAwBijaPMRU7SgIkQAIkQAIk0JkJULR1Zutz7CRAAiRAAiRAAh5DgKLNY0zFjpIACZAACZAACXRmAhRtndn6HDsJkAAJkAAJkIDHEKBoMzFVQMBcLB6XjP4h+kq4Uq3700XY6DGmZEdJgARIgARIgAQ6MgGKNsW6DVtOycbhBdkoqs7F9oMrsK0jW59jIwESIAESIAES8BgCFG2KqbTL8cGEaNScXY85Rzd7jAHZURIgARIgARIggc5BgKJNsXPY63j3zsGoObkC807ZuXlz55gzHCUJkAAJkAAJkEA7EKBoU6AHL8Ha5DEIyNmMxw+ubwdT8JYkQAIkQAIkQAIkYJ0ARZvCputzePOByQi7LKLtG4o2/mhIgARIgARIgATciwBFW4M9UvDqw9PRv/wgVm97FXvcy07sDQmQAAmQAAmQQCcnQNFWPwECMUz7G/x8wmAgax3mHdvSyacFh08CJEACJEACJOBuBDqxaJuM1OTnMCLYaBJdCS5mbcXGrE048Z27mYn9IQESIAESIAES6OwEOrFoS8Ss+BQM62aYAr6h0egTUIID25/ByrLKzj4vOH4SIAESIAESIAE3I9CJRZuZJXyexpvfT0ZYwTY8v2cV8tzMUOwOCZAACZAACZBA5yZA0abY32su3njoAfShaOvcvwiOngRIgARIgATclABFm2IYpU4bS3646VRlt0iABEiABEigcxOgaFPsH/oK3p2ayB0ROvfvgaMnARIgARIgAbclQNGmmKaP7D06jnuPuu1MZcdIgARIgARIoJMToGhTJoCPxLR9T2La5L9LC7NxvToX2w+uwLZOPkE4fBIgARIgARIgAfcgQNFmYoeQkKfx4qjJ6BPiJ3/NxtZPF2Gje9iJvSABEiABEiABEujkBCjaOvkE4PBJgARIgARIgAQ8gwBFm2fYib0kARIgARIgARLo5AQo2jr5BODwSYAESIAESIAEPIMARZtn2Im9JAESIAESIAES6OQEOq1o0/bug/wr3Kyqk89/Dp8ESIAESIAEPIYARZvHmIodJQESIAESIAES6MwEKNo6s/VbHLs/4FsF1BAQCZCA3QR85XdUI78jHiRAAiTgBAIUbU6A2PZNBKKPX6S8DE4j7zsn393/NgQ/ej+i4gNQ+M5iFJ1xcvtt3Nzku0fg2VHy4mw4ivGP5Wew3lo/uvggyfs7pNfUWjlDg+WL4jDQ5F8rMzLx+Jd8MbexaT3jdnELMGReHOqyv0XO3z7BzXzOE88wHHtJAu5JgKLNPe3SYq8mxr2LBfGhgO40Pv7sBWx21hj6z8aAeRPQUzROXVUusle9juuXndV4+7RjEG1+KLlUglKdvg8V2Pb3fGy11B3vMLx352hESW3l4pPbMTO32sJZgXj2od7op/8XP3/07ReIGoq29jGuJ9y176OIWjAZPQOBLnVlyP1/61DwzXlP6Dn7SAIk4IYEKNrc0CitdWnEwDVIHREBXN+H1V+9gT1WLwjE2MhX8KNR0QjxaTzp4v6HscQ8ByPkYUS9kISwrjUo3r4B5zd/21o3POLfDaINOPhhJl4raKXLXhq8JaJtWNdbyMnciSeLrHnbjO1E9MUHj4l8o2hzv7kQGI3NE2MR1KRnBdj6xWGktXlv/eE99SnETR+IAFzD+TeXovhSm3eCNyQBEugABCjaOoARrQ4h5BWsvSsRAboS5OWXNISnXT63CKtLm17V7Yk/In6kPyq/3YBTG/Z2GCqqRJvaUVO0qSXWduf7heGtuN5G0eYDTa8wBPm2l2gzDNv73iVInKaF1+UdyEz7CHVtR4N3IgES6CAEKNo6iCEtDqPPcnwwLhpFh57BLy7mtjDSu6Fd9gj6+pzHqV8vR2UHSj7wBNE2NvJ5DCvbgE1lubjRkedju40tCGkT78CowPYVbUA8ev5mAQZoriH75aUoMftwajc8vDEJkIDHEKBo8xRTBS/B2uQxsrxicpQfxOptr1pfHjWKNovLoabtxMzFkKdHIPDSDhx88yMrRCLw3j0jEVWZhU0ngEmJ0dB28wZqK5Bz4hBelADrfOVKZWmq4DCSjpisSTb7u6FNTfYRZPWKx6hgWZY8shdbAkZifkwIUH0ZW/cdQ5qJiJyuTcCcwVoE+cm99UfdLVTkn8C7J69gswXXhS2iLXX4fZgmq82mR07m53iysJXJ4SRP28QhH2LBUAl6KsvG1wfXY2PpUYfF28zoOzB/UCV2ZtZh3PDe8CvPwpqMSjwwLhFRXSVm7+w+PHOhotFmXl0xf2A8pvXTGNh+VwtdeT52HjmJZVXKMrE3FsZPxfQ+Pig+JTF/l5SYP2+kJkzFtN4+yJdYwEUSC9gwF2z5fXUbgE2TBkNTdhpp+y80iTfU9krAhlF9gbxDmH28yNiuN6b3Hoo5cco8kL5WFuP4qeNIK7Z079ZFm4FXkCyLN7W7tb+jiz8WDx2FSdpg+HWRQdbK/L9wDO+eL0Z6C8lBfo//EYmj/VG0+WfI2W4LHJ5DAiRAAo0EKNo8ZTZ0TZEXYyJEysgRiLCoCARYEm2m5wVGoL9EQN+4lo2iysaBNlse1We4LYiH16ENOPmBtaVRo2irKkext0TqlxZLSL8/tGEh8PO6hbMH0zGv2HgPtaJNXrg6vXsvJAIaaUtXXYJ8XRCiNJIRkXsASScNDY8KH4k0fSxfnYiNgnLU5xUEaBDVQ1RI0RGkHr6CDDN72iLaZkcOR7IBLPyCwqAN9mn28rY4TZwk2uA9BtMHPoEHhvVDgF6Llot4+9Yx8WYQG96oKKxAsQiMqF5B0OkqUFEqE0HP2a8U+7/ej8X1EBtFFyqLkFN2S8q9BCOqpz4iTM7bJefdNBKQuL+1k8cixrcIO78+hJfEbFpNAt4b0xd+V49hccZl7Ff9m+qKZWOnYlyIaZ8MjcwfmoSZkbU48c12PHPd8LeZAyZifmywJOKUIueaZGN6yzzsJfOwi9k8bOiHk0Wbl7Q3Tjx3wSIWS68iv6oOfsHh0AZ5QycfKi/Jh4pVBrJEOkaWSIv+JaItXTUoXkACJNDJCVC0eeQESMGrD09Hf0uizZJHzmyMzTxvRtEGEQqnNlhLQDCKNpFqGXt3I7XC0Og47UgsSxQhdeUQko4VGf6oUrRFFR7B7Mwr8vYfiQ2JgcjYI+1XyovxTnkx1omHaE82Nll5gQNdkRo7GPFdS7HtWA42mI3VFtFmeolVz4qleeIs0aa07ZWI5AEpmJ5gTBwpv4QDme/jr0UHRTqpOxTRlrF3h9jKyLLM4PnU1nOOMBGmYVg7KR5RFdlYmZHT4OkaFzkWy4ZqUJG1A9MvNJaq0PYYjPduHwA/sdviI1V47I5xGNatUcSp66nh7KR+47B4SIiZB08E4lQRiLUXsGHnabxbf6Y/lo0Zh1FdxbO69zTWGL1a2pCheG9sFPxM56GLRNuo3qORlhCGYuHyjHAxeBV9sHjEFCSF3zTOXysUkl7AmO9FUrTZM0l4DQmQACjaPHIStCDaTMdj6/KoGtFWlY01u2SJtEFo9MaG5OHQlsoy2oEc1DsP1Io2ZRlVPGnpI0xEmz4OCY2izSBEuiH/+C4szavGWRts51GizYp4a3V52wIHAytJbFUEsJ5lhXG5up6zqWizAtJoR5zbjenZRpVuPHVO3GTM7u+L/KtV4uUKFpukY3aeeOjsPfyisGnKUGjEW5cq3rp6j6l48NLFg6e7uB/TzrQmW40fFeZL8vX9ca6nrSnbxgE3F8MWYFC02TtDeB0JkIAQoGjzyGnQjqJNYtoUz5cBXWOsW8PfXSTa4Cv3mihxdbI6W3/oqqG7WYacosvYcqHA7pg20ynQrp62ho5I8eTuszB35BTEyPJ2W4i2cSEDZCkyBlGyxGd+VFgQbfAKwVt6D5u+brHdy6Kmd1KWSMVj96Usu0oY3Zy4qSIM0WRpVH+F1r83Xk4YjJgQWRY3P9pMtDUtJmLajRbjISnaPPKJy06TgLsQoGhzF0uo6odrRJtNMW3tKdr0jGTHgtkhYegf3B2xwYHQ9DQGzounL008feZFcz3L0xaIYSEpmDUmGf27y1hvleBi5kb8z6Vtqne+UOVp6yZerjvFy4VqFBdJrKKSd+AjcYVhwbAo2pRrvKSfVbJ8uVuWLx3cnUNZIs0/vk28dsF4a5KIQpgujcq9lJg6v1pUXC1EcUOSisS19Za4tjYTbd1QUVSEYgvOxYs5R/BSmZUfNGPaVD3peDIJkEBTAhRtHjkjnCzaVGaPtupp85fCpndKYVPzF2hQLDZPiAayZbntnH65zWxJq5XlUWumWhifJBmNVcjYtQepZrsEeYZoC8WIsJ9i1ojx6CPx9ZBEjLPHNmKdHWJNYaRGtE2XwP6FEthffDJddoEwUSFWl0eNXrEepcjIqsaouAjoJGHkSUkYUZU1am5QZYlUn1RyrjuWjR8AcTM2XRoNG470kb2hu7QfT54qNbmfY8ujCoNm2aODJmO+TFlDbKChw9aWR215lDB71BZKPIcESMAaAYo2j5wbThZtuB+Rf/ieSKiW6rRZWAatZ2fp78YAchQgffdhLDN6Q2YOkjir6CCJf9J7UvTuHHWibeFQKSvRqwz7D8jymZLNKK0YRJvlAHBPEG1jZVuyhfptyerF2nr8OWeH6sQD82nsDNGm2Mvc06Zkb1aI+J537ibm1Afgo2kGsV2/K0UMFiAjOwCjBvk1WxqFFdHWkBBj0dPmjZdGJWNSr8al12bdM8bPQZ9cIUkx9dmf+izRCfr6bk2vUxIRDONvLJsyM3IoHpAs5Kxz+jIplgA01mk7nya7Inj4FnF2mZgXkQAJOESAos0hfG138TDtEszqKy/2+sNY8qPJTge52H5wBbaZdsnWRAS5pvUdEdSINgtlGfylNIc+Bkl3GZt2HDNm/akTbcrLUl8bLr/QWPJDaVeW6N7dddqO7NFgvJQwEBI6VX8oJT90pVeklIPhbxUFp/FMkYV9SJ2UPTp24CtIrt6G1XmOizXF/GpEGxqWR2XJ8ZphyVFfwkJTdwO67uL6M4lp0wZFY+148aLeNFkS9e2LDVMSoK25gq27jiCtld2/WvrVGJZIJV6sRvZda5I1arzKZHlUKbcB/RzookOx9FVjUbRB6s+NQ6pkpzaUNDE217iUKQJtvL6Mh0zR6wXIlyrHQaG9oJFahM28iBZKfjSUntHXw9tnyHY2P7gjQts9L3knEuioBCjaPMSyDQVYrfY3G1s/XYSNdoo2tLr3qDrRpq/91aQAqr4IbtE5bD15AWsa4pDUibZmberHKkVgK6QO3dbjktVaX3Os6dG6p00pZWJ9IliM6dKf7iTR5oopqEq0SQfGhURjoZQa0fobCutWXDuLj852waMi0BpEW4NYqRIPmJS7MNZN0/dfEUWt1ilrbbDKEqmcp7uwB9OyyptdoU9E+P3wYYjqrt9QV2qllUkR5oxSjJoyHFFWRJu+JMfC2DGYFqWv59bYZJPlUPOCubpy5Fw4gTUXpX6ceS8sFNctvpKFD09bKvIse49OmIvYR+Pkc0sSZ1YvRtGZ1kDw30mABEigOQGKNs6KRgLxKYh+/DaEikOsrioX2atex3UPX8IxiDY/lFwqQWm9qKvAtr/nN0tYsH0aBOLZsphoEAAAIABJREFUh3pDtokXd5Q/+vYLRA03jLeAr6kH0yLf0vN4Mre5KLPdFh5wZt+HEfmTJEgNanQRwXb5f9ch/5vzHtBxdpEESMAdCVC0uaNV2rNP/rehx+PfR+TgABSu/aXHewQMok1fl0I5ivGP5Wew3m7GGixfFIeBJtdXUrRZoNm6BxNWvWJ2G8f9LlRqIF7MxMX/+yGqlDV39+spe0QCJOABBCjaPMBI7dNFETq+EtTVgTaPbx+OvGunJuCrr90i9T/4O+rU04CDJwFnEaBocxZJtkMCJEACJEACJEACLiRA0eZCuGyaBEiABEiABEiABJxFgKLNWSTZDgmQAAmQAAmQAAm4kABFmwvhsmkSIAESIAESIAEScBYBijZnkWQ7JEACJEACJEACJOBCAhRtLoTLpkmABEiABEiABEjAWQQo2pxFsq3b6XU3wlKmoW9fqbaOKqmy7vk11doaIe9HAiRAAiRAAp5EgKLNk6zV0NfbELY0RfbylK1+rubjeuk1lPx9Nco9fPcCjzQFO00CJEACJEACbUSAoq2NQDv1NjFzMeTpEQjM34uMNzagzqmNszESIAESIAESIAF3JEDR5o5Waa1PfVMQkyrbTV1Mx8E/fdra2fx3EiABEiABEiCBDkCAos0jjfgwolbIJtSlmTjy8jrukOORNmSnSYAESIAESEAdAYo2dbzc5Oz7EfmH7yHi5nEc/e1q6NykV+wGCZAACZAACZCA6whQtLmOrQtblkSEVyQRITgXZ557HeUuvBObJgESIAESIAEScA8CFG3uYQd1vZBEhBhJRAi+vAOZaR8xEUEdPZ5NAiRAAiRAAh5JgKLNQ8wW/OzbiOtv7GxdFUpOH0DuBx9BV+UhA2A3SYAESIAESIAEHCJA0eYQvra7uNsjLyC8t+F+XUIiENoLuPavlchJP992neCdSIAESIAESIAE2o0ARVu7oXfkxndDu+wR9MUZHF+8EjcdaYrXkgAJkAAJkAAJeAQBijaPMJN5Jycg4pXZiPShaPNI87HTJEACJEACJGAHAYo2O6C1/yXGOm3lLPnR/rZgD0iABEiABEigbQhQtLUNZ+feJWQ2Bi6dAA13RHAuV7ZGAiRAAiRAAm5MgKLNjY1jtWtxCzBkQTz3HvVE27HPJEACJEACJGAnAYo2O8G172WTEfHqo4gMBG4W5KO8/BpK/r4a5Zfbt1e8OwmQAAmQAAmQgOsIULS5jq1rW9Z+D9qUKdBG+MMbVchZ/UsUnXHtLdk6CZAACZAACZBA+xGgaGs/9rwzCZAACZAACZAACdhMgKLNZlQ8kQRIgARIgARIgATajwBFW/ux551JgARIgARIgARIwGYCFG02o+KJJEACJEACJEACJNB+BCja2o+9zXfW9u6D/Ct5Np/PE0mABEiABEiABDoeAYo2D7ApRZsHGIldJAESIAESIAEXE6BoczFgZzRP0eYMimyDBEiABEiABDybAEWbB9iPos0DjMQudgwCw+PwyT0ak7FU4eCHmXitwNrwvDHOzwvXdLdw1sopk+8egWdH+Zv8azH+sfwM1ncMYhwFCZBAGxKgaGtD2PbeiqLNXnK8jgRUEjCKtsrCqygs119bjaNfXsL6MkvteCM1YSqm9fYBik9i2cEcpFs4LTGhH1Jiutb/S6C2F8IDKdpUWoWnkwAJGAlQtHnAVKBo8wAjmXRxZvQdmD8oqGmnCw4j6YhVd41nDbAj99Yo2s5/sQ+LjrQ+0PlxUzGzf1fo8g5h8fEiZLRyScqM8fhBf4q21snyDBIgAUsEKNo8YF5QtHmAkUy6mBQWi8dke7H6wycIUWHBAEWbZxhRpWhTOyiKNrXEeD4JkIApAYo2D5gPFG0eYCRrXQyMxuaJsQiiaPMMI1K0eYad2EsS6KQEKNo8wPCeJtpSh9+HaUHZSM8LQ1JsMHRXDiPtQiDm3x4LjVc1co7uwpOFtxrIa/00SI0finhNEPy6yJ9rq1FRcBrvnryCzXXG07z8sey2yRgXIgHfB9Mxr1i5PAhp4+/AqOAqnD2wG/NKa1VZdFr/iUiNC0bxme2YebG6ybUL45MwvQ9wNkPud1XpR1fMHxiPaf00CPLzBr6rha48HzuPSExTlYV72yDa6nlFVCBjz26kVjZ2wdrfkzTRmDMsGlp/uT/k/mUt3F8VDeee3ND/A8eBgSMxqpfEdQmviivH8e4Jse13rY/VnIFh6bkSOzPrMG54b/iVZ2FNRiUeGJeIKGm++Ow+PHOhAvlK074hSEsYjlE9xfPpZfxjlSxjnjiOtOLqxvOU820RbeEjkT4ioiksG0W5LZ620LuexcIHBsK/7hq+fecVfJzlXLuwNRIgAc8lQNHmAbbzSNHWvQLFukpUIARRPbyhu3kTxSU6BGlF7Ny6jE3bj2GNnr13GN67czSi/ORlfrUQxTWAX3A4tEEiSEpPIu1ADrYqNuoWhU13DoXm5gVs2C2iTl760/qNQ+qQEOgu7seTZ0qbv4Rbs6+ftDlF2pR7LZN7NQaSa7B26ljE1Mq9dsq96tsxCTyvLEJOmQhP32BE9dTHr5Vi/679WHzT7IZOFm3jRDC8JILBr1aEiUTK67z9oe0VAj+vcmTs24PUitYGbOHfg5dgbfIYBFi79PJmPP7NetUNGwRXFYrLuiCoTmxTBQT1jIDGD9DlHsCTJ4sb7GWrcDWINm9UFMr86uKPqF5B0OkqUFEqajdE37bY4Wuxg07fXRH0E0XQB8r9rhcg/4b+C8AHmogwBHWpwol9O/BMfbKByWGLaOsehfeiQgwXqVz+tkW03fXMn3FflKH58gNv47WPqNpUTz5eQAIdlABFmwcY1iNFW0QB0rcdxjL0xobk4Qg6txvTsyswc9BkzI+ubfQq9RqKrUMjUHx+L2bnKp4uH7w0JgmTNCJEdokQkZe9cozrMxrL4sNQkS1etZweWD4lAVoTEafenF2xbOxU8eCZvuylFU0C0sf0rReD00QMGo4wrJ0Uj6iKbKzMaBST4yLHYtlQDSqydmD6BZPO6i9xqmgLxlt3TsQwH/FS7TiClUYvpDYoFmsnRNcvwc6WZIcGL5OtMLqmSBZkoshrK0dxOpac32Jraw3nGYQYDLY6Z/R++cp8uGM4tDKGrduOIM14tlrRlrF3hwhUEWV3iigrMyR5aLUjsSExAjmZn4snVxpWBPnVY0jNuNyQJKDtEYXf9wup9+Y+U9TUuwpbRJspCRvsa3q6LaLNZ9h/Y+F/jUDwzfP4z9q12HtNNXpeQAIk0EEJULR5gGE9VbRt/UKWRRGB9+4ZCY0i2uo9JWi2FGhuBoNHxdJ5IuhGiaDrKZ6bkiBoNTU48Y14TK7bb8gk8dYtFm9d/vFtmJ1nWOKcPzQJMyNrpe3trbdtfHHDOMYmPbHhpW6rYIGRZVSzpTijeKmTpcI92dhkPwqnXql42gwCq7HpxSPuQ1J4U5FsK4Om88LoSaswZuYaly0bRJuXzL2kkYi6kY0N+7Pwri0r524g2pxqBDZGAiTQoQhQtHmAOTu2aPPB/P4JmDYoAvoV0aZH8ziv+n/37YsNeg+bxCjZvSxqeqNmHpkQvDVpHIbBdGnUcMG4kAEi6GIQ1byzqGgr0WZtzla6o2izLVbPJaJNOM2MnijiX7J39Yc+/rC6ChVlV3H8/AWsKbMzps2Uvw2i3PR0WzxtHvBIYhdJgATaiQBFWzuBV3PbjizalJg06EqRc61xadEvKAza4JsWPXJaWbp8T5YuJTQKkKWvxbL0tV8N0GbnKkukRdj55SG8FDQYW28fADRZGpWLlJg6KbhaXFSMCsVzY4xrajPRViWsSs2WYfVjqr6CD7OKLBZ4bRGPS5dH21e06cc9yj8EST0CoQ3tiZ5BwdB21ye8mCe0GAnR0+bQL4kXkwAJuJYARZtr+Tql9Y4r2vwl83OyZH4WY+f2A3hJkhCUw+ryqJckCEyWBAGIUMvtgXHRQSg+JZmfl8xik1SSb1giPbYNW4LuwJwBXZotjU4fMBELJRu2+GQ6ZuY2Zr8qcWt2L48mSOxX7+bixrCMaIwNrM+0NCw1N18eVTlY89Ndmohgo2izkYGq5VFrWLoNwKZJg6G5cghJx4qankXR5uBk4uUkQAKuJEDR5kq6Tmq704k2L4lVmqDP+jN/4SvZm0D+0a8xu6Cb4bwAK5mbavgrS6QFWcgIiMUo3+ZLo9ZE28xBEn8n4tGip81blnLvlqVcs2B4064pgtFiwH6T7FUlEUGE3G5J8lBErm8Y0gb3Rs/yHPzxYilOqBm3C8+1dclT3wVbGagSbf5R2HCbPkHjCOadacxUhSLaLJXpoGhz4Yxg0yRAAo4SoGhzlGAbXN9xRVtjyQ4oJSz0JRnCQ6GrrIGmu0mWqXBuKHdhsiSq7TEY78lSZn29rn2OBOEbl0gD9WU8fMyyRo1GblgelfIk1xrLk2jqbkDXXeKmLMW0QVl6bSxpYmitFNuO5WCD/v82K3uiZyBlKSTGz9yL2KzkR0MJi1vIObwdTxbZEm3fBpNWbqFGtNnKQJVog1Hk+kssW+lVKTliLPlhZJsvXtXZV8x42SDaZkcOR7KSaquU/DBdsm5hmdqmmDbfe7Fw2YPoI3nAO1/9PT5zIMmmbSzNu5AACbQVAYq2tiLtwH06smjT182aHz0c0wYYRApqq5B/LgNbvIdjjmn2qK8sDU6UpUFfiTv7WuLOTJZSDZmePvWernlSVkR1yQujbRRvD2ClhpdeOIZEY2GCsbCtvlDstbP46GwXPDo+1opok4vEE/bWyHgMCzFsGm44CmDIrjUchgLDCY1FYEUEnD17BEuluJn5eJoX172KjKyTWGmpWKwD887RS1WJNhsZqBNtFrjqB6UrR86ZDLx2RQoymw/SBtGmlDKxyqeFhBCbRNvIH2Pp7OHwv7YTK1//GHmOGoLXkwAJdBgCFG0eYEpPE23tjbTJ3p8WO1OF42eykFZfgJUHCZgQMIq2ysKrkNrFclTj6JeXsL7MfkqJCf2QEmMQ7IHaXggPbHnD+OAHX8Svp2pRdfSvePmvB+2/Ma8kARLocAQo2jzApBRt6oxk8MbodymwdlgpJaLuNjy7IxIwirbGoVXh4IeZeK3A/sFOvnsEnh0l22g1HC2Ltgk/TcN0veP2k1Ss22v/fXklCZBAxyNA0eYBNqVo8wAjsYsk4BQCsZjx65/hthDGszkFJxshgQ5GgKLNAwxK0eYBRmIXSYAESIAESMDFBCjaXAzYGc1TtDmDItsgARIgARIgAc8mQNHmAfajaPMAI7GLJEACJEACJOBiAhRtLgbsjOYp2pxBkW2QAAmQAAmQgGcToGjzAPtRtHmAkdhFEiABEiABEnAxAYo2FwN2RvMUbc6gyDZIgARIgARIwLMJULR5gP0o2trQSF18kOT9HdJr3Gc7qDYcvQtv5Y1xfl64prvVfBcCF96VTZMACZBARyJA0eYB1qRoayMjNewBKnt+ntyOmbnVbXTjjn4bb6QmTMW03j56sFh2MAfpHX3IHB8JkAAJuIAARZsLoDq7SYo2ZxO10p6XBm/dORrDusrm65k7XbL5etO9M9toXG5wm/lxUzGzf1fo8g5h8fEiZLhBn9gFEiABEvA0AhRtHmAxijYPMJKNXeysos1GPDyNBEiABEigBQIUbR4wPSjaPMBINnaRos1GUDyNBEiABEigGQGKNg+YFJ4m2lKH34dpQdlIzwtDUmwwdFcOI+1CIObfHguNVzVyju7Ck4W3Gshr/TRIjR+KeE0Q/LrIn2urUVFwGu+evILNdcbTvPyx7LbJGBcigewH0zGvWLk8CGnj78Co4CqcPbAb80rVJxDU9zei6UTIyfxc+mg2OQKjsXliLIIKjmBlYU/MGdYXQd5yzk1Z7jt6BKmljWPSX6n1743fj4xHlP6kumrknz+MnYjHzEFAxp7dSK1sbN/AIAGjesrG4l7yd105cs5k4LUrMi7jaVr/AXjrjsHQ1FzGph3HsOY74z/o+zVB+nUzB5v2nMQahVl7z+3wkUgfYQa24DCSjrSw+3rPe/HUzx9ElGAo2fc23vhbVnuPgvcnARIgAbchQNHmNqaw3hGPFG3dK1Csq0QFQhDVwxu6mzdRXKJDkFaDoFsiOraL6NAPuSH4vxYVVwtRXAP4BYdDqxc6pSeRdiAHWxU03aKw6c6h0Ny8gA27RdSJaJnWbxxSh4RAd3E/njxTinw77Dk7cjiSQwwX+gWFQRvsIzFtLYi2snIUB3pBV1gOnW8wonoFAd+VYv+u/Vh809gBk3HpSq8ivwoICpWb6Oqg6V7bVLT5RuC9iSMR5SsMrukZdJFze0HTzRsV50SIZlc0jKv5eLti2dipImarcOKbHXjmuh0AgpdgbfIYBFi79PJmPP7NevUNd4/Ce1FGsD5BiAoLBloTbXc9i9cfGGi4V+k+rHvtf3FO/Z15BQmQAAl0SAIUbR5gVo8UbREFSN92GMvQGxuShyNIxMd0ER8zB03G/GgT0dJrKLYOjUDx+b2Y3ZCt6YOXxiRhkqYcGbv2IFUEj3KM6zMay+LDUJEtYianB5ZPSYDWRMQ5ak7D8mVQy6KtRsa2W8YmAlN/zBwk10QHoSJrB6ZfMHR2lPQzTfrZREx6iVdwgngFAyuaiLbZsZMxZ4Avcg5vb0x+UM4NKMDWdPFUKl41CJtRwqaXtLF3NzZ1N/BwRLSia4pkdyaKvLZyFKdjyfktjqFt8FK24mnzHYYZz/4I8cE3cPHzVVi/+5pj9+XVJEACJNCBCFC0eYAxPVW0bf1CxAbEi3TPSGgU0VYvipovD5qbwXrsl1G09BSvWkkQtJoa+z1MFmxvk2grPILZmVcavXpBsbI8GY2g3ANIOmlYt7XWzhzJopzdv6aJaDMsz4o4q+fVeDQTuMo/+fbFBr1YvV6E/EDxDN5q9Dy67XS2VbS57QDYMRIgARJofwIUbe1vg1Z70LFFmw/m90/AtEERhviwJkdTj1TDPymiRWK/HPIw2SvazJf4LAgSa6LNkhi1FFPX2DXLDBSPI+DAsmirM8+JJ1C0OREmmyIBEuisBCjaPMDyHVm0KTFa0JUi51rjOqghtuxms4B9vbm0mgS8N6Yv/PT/cfUYFmdcxn4n2dEmT5tLRFsViq+USgyg+VGF42eykKZr+vf5Q5MwM1KK1cqRfzwds/OaJkGowuFOy6OqOs6TSYAESKBzEaBo8wB7d1zR5i+Zn5Ml87MYO7cfwEvGGDG9Sawuj0oB3LWTxyIGItRye2CcxJIVn5LdCy45Z/cCV4s2Ncuj1qamIlqRexLHQ4diVIBZEoTaOe2qRATTftDTptYqPJ8ESIAEmhGgaPOASdHpRJuVgH1JNTVuhyTepaNfY3ZBN0Ngv6OixWQOOEu02ZOIUD+mfMVj5oOF0cNkbGXYf+JCYxkPJSvVy5AM8W7XWKzVx9OZZ9q627ymaHM3i7A/JEACHkiAos0DjNZxRVtjyQ7USlkLfQkNyY7UhIdCV1nTrDTGOKn79ZLU/fIzWRLV9hiM924fAL/yLKzZl41Nqu0ZjJcSBqK/8Tql5IeuVBINjKu1+ppxzxSJJ8+a8LD0d2slP27IuDRmiRjNSn5I6ZHuUvYkUEqlXJFtn44p2z75IHX4FEla8GmyJDonbrIkN/hL9qpk6F5ovsCqGomTLjAtpQKl5EeVLIOXGsFWX8GHWUVm+5D64q6fp+G+SKBw+2/w5mdlTuoNmyEBEiABzydA0eYBNuzIog0i0uZHD8e0AWGGRITaKuSfy8AW7+GYY5pl2iBsirDz60NNllKV+C7zmma2mdaQ3RrVwsn6dvXlSlSJNmmvWXHdswebj8t4X4vFdS+cwoc5xUg3lvuwJFrrL1eWjH2lRMo+KZHiJrqt5QQL6XelCO095kJ7DB575UdI8L+GvSteweY826zIs0iABEigMxCgaPMAK3uaaGtvpElhsXgsQkrqWz0sB/e3d795fyHQ4yH8YsldCK86gv/72/+Dw4RCAiRAAiTQQICizQMmA0WbOiMpcWnWr7JSSkTdbXi2KwhM+BlefSQWyPoYS/6y0xV3YJskQAIk4LEEKNo8wHQUbR5gJHbRKQQGPfo7zB3bnfFsTqHJRkiABDoaAYo2D7AoRZsHGIldJAESIAESIAEXE6BoczFgZzRP0eYMimyDBEiABEiABDybAEWbB9iPos0DjMQukgAJkAAJkICLCVC0uRgwmycBEiABEiABEiABZxCgaHMGRbZBAiRAAiRAAiRAAi4mQNHmYsBsngRIgARIgARIgAScQYCizRkU26KNpBcw5nuyt09dDcqz9+L8Xz5CjckG623RBd6DBEiABEiABEig/QhQtLUfe3V3HpmCqDu08I6IhCYYqMlOx7G3PkWdulZ4NgmQAAmQAAmQgIcSoGjzOMPdDe2yR9DXPxdnnnsd5R7Xf3aYBEiABEiABEjAHgIUbfZQa9drjKLt1nEc/e1q6Nq1L7w5CZAACZAACZBAWxGgaGsr0s66T8hsDFw6AZr8vch4YwOXR53Fle2QAAmQAAmQgJsToGhzcwM16178Agz9STy6nvkXDq/+t6f1nv0lARIgARIgARKwkwBFm53g2u0yYxZp5bfrcWrDt+3WDd6YBEiABEiABEigbQlQtLUtb8fv1i8FMb+4DUGX9uL46g2oqXK8SbZAAiRAAiRAAiTg/gQo2tzfRs166H37XET9YAQ0gY3/RM+bBxqSXSYBEiABEiABFQQo2lTAcotTfScgbPFsRIXU4PqlAuiqDb2qPvEJCr464xZdZCdIgARIgARIgAScT4CizflMXdvi1Bcwanokbh7agJMf7HXtvdg6CZAACZAACZCA2xCgaHMbU9jYkdELkfh4HG5RtNkIjKeRAAmQAAmQQMcgQNHmaXbsK4kIqbehx8V0HPzTp57We/aXBEiABEiABEjATgIUbXaCa7/L7kfkH76HiJvcEaH9bMA7kwAJkAAJkEDbE6Boa3vmDt6Re486CJCXkwAJkAAJkIBHEqBo8xSzjUxB1B1aeEdEQhMM1F3egcy0j7iNlafYj/0kARIgARIgAQcJULQ5CLDNLjfuhIC6GpRf+hY5azfgJgvrthl+3ogESIAESIAE2psARVt7W4D3JwESIAESIAESIAEbCFC02QCJp5AACZAACZAACZBAexOgaGtvC/D+JEACJEACJEACJGADAYo2GyDxFBIgARIgARIgARJobwKdVrS1N3jenwRIgARIgARIgATUEKBoU0OL55IACZAACZAACZBAOxGgaGsn8LwtCZAACZAACZAACagh0KlF28QhH2LB0EDgViXysjZh3anNOKuGHs8lARIgARIgARIggTYi0KlF2zDtEszqG44eEf0Q0hUoPb4Cz5zZ0UboeRsSIAESIAESIAESsJ1ApxZtDZh8nsab309GWOk+rPzqDRywnR/PJAESIAESIAESIIE2IUDRpsesiLa8LZi3fx1utAl63oQESIAESIAESIAEbCdA0aZnFfoK3p2aCJxdjzlHN9tOj2eSAAmQAAmQAAmQQBsRoGgT0AGRK7F2bD8UZf4Wv8g+2jL6nvfiqZ8/iCh/oGTf23jjb1ltZCrehgRIgARI4P9v7/5jqirjOI5/rLh3zF2BNn8kep1rwAaipdFwNRdzyMLKaswVGWNj5B8ZUbZaA2MQFDnDcraya445+zHHWraJy/yjwRoUkSlJDSLGEqY5pCA0tbRzszv+6qKXcw5cnvf9+57neb6v78P22eE+5yCAgMkChDar+6FTpH1fPaTygXG2Q1apanMXX/2S9Ru4QM2H6jF5B1E7AggggAACCLgiQGgL3mmbXaudd6foUldAlZ2NGrgSxj4mVXmlBUrznVPfZ2+p/stBVxrFJAgggAACCCBgtgCh7d/+z1SGf4sK0lMU7xnbENd0583s/UP1CCCAAAIIIOCSAKEtCB1TqOo167ToRushu/2ndek//P6ezXr7N5c6wTQIIIAAAggggEAYAUKbhZORvEclaQkaaNugF06OsmEQQAABBBBAAIEpJ0Bos1oyf9E7em35XELblNueLAgBBBBAAAEEQgKEtqCEdRBhT/Agwg/btfFHXmPFnwcCCCCAAAIITD0BQluwJ95nVJe7SrP7D+jxr+vH6VKMsp7eppwF0q9fbFHdweGp11VWhAACCCCAAALTToDQFmzpdb17dIU2VBVoSeygWrZX6cB4z3WbdluGghBAAAEEEEBgMgSMDm2p88qVnzhHcXMXKt4rnesOaOP3jeH7EPegni3P0pzzx/XRS+/pu8noGnMigAACCCCAgHECRoe20JsQ9NeozvQ2aveJD9QZ7sG6we2xcpOqH06SuhtU/m6zcRuGghFAAAEEEEBgcgSMDm2RkN+6/mUVZ8zi92yR4HENAggggAACCEQsQGiLmI4LEUAAAQQQQAAB9wQIbe5ZMxMCCCCAAAIIIBCxAKEtYjouRAABBBBAAAEE3BOwNbS5t2xmQgABBBBAAAEEzBIgtJnVb6pFAAEEEEAAgSgVILRFaeNYNgIIIIAAAgiYJWBzaItVWfEyrZhlIY4Oqf3wT6r5+W+zRKkWAQQQQAABBBBwQMDm0OZRYbZf6XFeJfp98mhUre93aOtpB1bOkAgggAACCCCAgEECNoe2MbkFGSnasSpBQ21HVdR0wSBSSkUAAQQQQAABBOwXcDy0nTzSqpJj9i+cERFAAAEEEEAAAZMEHAttD+QsV+ESqaPhW1X0mURKrQgggAACCCCAgP0CjoW24vWZunfhiJoCJ/TGcPiFJ2SVqiR3sWIvD+qb3VVq6La/UEZEAAEEEEAAAQSiWcCh0BY6RXpWn77epfpxhLKeelM5/qtfGmnbqZr9pLZo3lSsHQEEEEAAAQTsF3AotEl592coP/mi9e9R6/Ro32XrHOn/f25KfVQljyyT789eHd61Sy076ZzPAAAB6ElEQVSD9hfKiAgggAACCCCAQDQLOBbaNMOr4vuStTp5pvXoj9Dn2u68RTMoa0cAAQQQQAABBJwQcCy0pSxNVmX2zfIMD6n3TOgBu3/oyCendMiJShgTAQQQQAABBBCYxgIOhTavni+6XZnxZ3WorkuBK9NYkNIQQAABBBBAAAEXBBwKbTfoyfw7tfoWQpsLPWQKBBBAAAEEEDBAwKHQNnYQoX3fMdXwGisDthIlIoAAAggggICTAo6FtvS70lSZ6VPv563afHycEmLWqOSVtZqvU2quflUHf3eyZMZGAAEEEEAAAQSiT8Cx0HZd7x69rUgVjy1V7GCzdtQ2aCD6HFkxAggggAACCCDgqIDNoc2jwmy/0uO8SvT75JlxQR37j6ril/A1+Na+qLJ75ul8x15V7m13tGAGRwABBBBAAAEEolHA5tAWehOCRTE6oo6mbm3tvBj2wbpBtJVPbNO6JKnn4+cUaIlGRtaMAAIIIIAAAgg4K2BzaItksUnKK9ukO+L5PVskelyDAAIIIIAAAmYITIHQZgY0VSKAAAIIIIAAAhMRILRNRI9rEUAAAQQQQAABlwQIbS5BMw0CCCCAAAIIIDARAULbRPS4FgEEEEAAAQQQcEmA0OYSNNMggAACCCCAAAITEfgHjH0e9/9ujHYAAAAASUVORK5CYII=;" vertex="1" parent="1">
          <mxGeometry x="970" y="295" width="621" height="270" as="geometry" />
        </mxCell>
        <mxCell id="Jp0leE43ZLa_niD7ZrZm-42" value="return maxVal" style="rounded=1;whiteSpace=wrap;html=1;" vertex="1" parent="1">
          <mxGeometry x="670" y="580" width="120" height="60" as="geometry" />
        </mxCell>
        <mxCell id="Jp0leE43ZLa_niD7ZrZm-46" style="edgeStyle=orthogonalEdgeStyle;rounded=0;orthogonalLoop=1;jettySize=auto;html=1;exitX=0.5;exitY=1;exitDx=0;exitDy=0;entryX=0.5;entryY=0;entryDx=0;entryDy=0;" edge="1" parent="1" source="Jp0leE43ZLa_niD7ZrZm-43" target="Jp0leE43ZLa_niD7ZrZm-42">
          <mxGeometry relative="1" as="geometry" />
        </mxCell>
        <mxCell id="Jp0leE43ZLa_niD7ZrZm-43" value="循环找最大峰值" style="rounded=0;whiteSpace=wrap;html=1;" vertex="1" parent="1">
          <mxGeometry x="670" y="400" width="120" height="60" as="geometry" />
        </mxCell>
      </root>
    </mxGraphModel>
  </diagram>
</mxfile>
